<svg version="1" xmlns="http://www.w3.org/2000/svg" width="128" height="128" viewBox="0 0 96.000000 96.000000"><path d="M35.8 6c-7.4 2.3-13.8 6.3-19 11.8-9.3 10-12.9 19.6-12.4 33.1.3 7.4.8 9.7 3.9 16.4C16.8 85.6 35.1 95.6 55 92.9 77.8 89.7 95.4 68 93.1 45.7c-.2-1.8-44-1.8-44.2 0-.1.7-.2 2.5-.3 4l-.1 2.8 8.3.3c4.5.2 8.2.6 8.2 1.1 0 2.3-5 7.9-8.7 9.7-8.2 4.2-18.3 1.1-22.4-6.9C26 41.6 41.7 26.2 57.1 34l4.2 2.2 2.6-2.7c2.6-2.6 2.6-2.6.6-4.2-4.4-3.4-10.9-5.6-16.3-5.4C30.5 24.3 19 42.4 26 58.8c8.6 20 38.5 19.3 45.8-1 .9-2.6 2.2-4.8 2.9-4.9.7 0 3.2-.1 5.6-.1l4.2-.1-.2 3.6c-.3 4.2-4 11.9-7.9 16.6-7.6 9.1-21.1 13.9-33.4 12C12.2 80 1.4 40.2 25.4 20.5c7.4-6 12.9-7.9 23.1-8 8 0 9.7.3 15.5 3.1 3.6 1.7 7.5 4.1 8.6 5.2l2.2 2.1 2.8-3 2.8-3-2.9-2.5C66.4 5.2 49.5 1.7 35.8 6z"/></svg>