<svg width="1688" height="637" viewBox="0 0 1688 637" xmlns="http://www.w3.org/2000/svg" style="background:#2e6175"><title>bg-blue-rings</title><g stroke="#5BD1FF" fill="none" fill-rule="evenodd" opacity=".533"><g opacity=".417"><path d="M298.613 606.176c0-10.877-8.819-19.696-19.696-19.696-10.88 0-19.699 8.82-19.699 19.696 0 10.877 8.819 19.696 19.7 19.696 10.876 0 19.695-8.819 19.695-19.696z"/><path d="M319.784 606.176c0-22.57-18.299-40.868-40.868-40.868-22.57 0-40.868 18.299-40.868 40.868 0 22.57 18.298 40.868 40.868 40.868 22.57 0 40.868-18.298 40.868-40.868z"/><path d="M340.954 606.176c0-34.262-27.774-62.04-62.04-62.04-34.262 0-62.036 27.778-62.036 62.04s27.774 62.04 62.036 62.04c34.266 0 62.04-27.778 62.04-62.04z"/><path d="M362.125 606.176c0-45.954-37.254-83.208-83.209-83.208-45.954 0-83.208 37.254-83.208 83.208 0 45.955 37.254 83.209 83.208 83.209 45.955 0 83.209-37.254 83.209-83.209z"/><path d="M383.295 606.176c0-57.647-46.734-104.38-104.38-104.38-57.644 0-104.378 46.733-104.378 104.38s46.734 104.38 104.378 104.38c57.646 0 104.38-46.733 104.38-104.38z"/><path d="M404.466 606.176c0-69.343-56.206-125.55-125.55-125.55-69.342 0-125.549 56.207-125.549 125.55 0 69.343 56.207 125.55 125.55 125.55 69.343 0 125.549-56.207 125.549-125.55z"/><path d="M425.64 606.176c0-81.035-65.69-146.725-146.725-146.725-81.032 0-146.722 65.69-146.722 146.725 0 81.036 65.69 146.725 146.722 146.725 81.035 0 146.725-65.69 146.725-146.725z"/><path d="M446.81 606.176c0-92.724-75.169-167.893-167.893-167.893-92.728 0-167.897 75.169-167.897 167.893S186.19 774.07 278.917 774.07c92.724 0 167.894-75.17 167.894-167.894z"/><path d="M467.981 606.176c0-104.417-84.645-189.066-189.066-189.066-104.416 0-189.065 84.65-189.065 189.066 0 104.417 84.649 189.066 189.065 189.066 104.42 0 189.066-84.65 189.066-189.066z"/><path d="M489.152 606.176c0-116.109-94.125-210.234-210.235-210.234-116.112 0-210.237 94.125-210.237 210.234 0 116.11 94.125 210.234 210.237 210.234 116.11 0 210.235-94.125 210.235-210.234z"/></g><g opacity=".417"><path d="M911.008 318.71c0-22.144-17.95-40.094-40.093-40.094-22.138 0-40.088 17.95-40.088 40.093 0 22.143 17.95 40.093 40.088 40.093 22.143 0 40.093-17.95 40.093-40.093z"/><path d="M939.95 318.71c0-38.125-30.905-69.036-69.034-69.036-38.125 0-69.03 30.91-69.03 69.035s30.905 69.035 69.03 69.035c38.129 0 69.035-30.91 69.035-69.035z"/><path d="M968.892 318.71c0-54.111-43.866-97.978-97.976-97.978s-97.972 43.867-97.972 97.977c0 54.11 43.861 97.977 97.972 97.977 54.11 0 97.976-43.866 97.976-97.977z"/><path d="M997.84 318.71c0-70.097-56.823-126.924-126.924-126.924-70.096 0-126.919 56.827-126.919 126.923 0 70.097 56.823 126.924 126.92 126.924 70.1 0 126.923-56.827 126.923-126.924z"/><path d="M1026.782 318.71c0-86.083-69.783-155.866-155.866-155.866-86.083 0-155.865 69.783-155.865 155.865 0 86.083 69.782 155.866 155.865 155.866 86.083 0 155.866-69.783 155.866-155.866z"/><path d="M1055.724 318.71c0-102.065-82.74-184.808-184.808-184.808-102.064 0-184.807 82.743-184.807 184.807s82.743 184.808 184.807 184.808c102.069 0 184.808-82.744 184.808-184.808z"/><path d="M1084.666 318.71c0-118.05-95.7-213.75-213.75-213.75s-213.749 95.7-213.749 213.75 95.7 213.749 213.75 213.749 213.749-95.7 213.749-213.75z"/><path d="M1113.613 318.71c0-134.037-108.66-242.697-242.696-242.697S628.22 184.673 628.22 318.71s108.66 242.696 242.696 242.696 242.696-108.66 242.696-242.696z"/><path d="M1142.555 318.71c0-150.023-121.616-271.639-271.638-271.639S599.279 168.687 599.279 318.71s121.616 271.638 271.638 271.638 271.638-121.616 271.638-271.638z"/><path d="M1171.497 318.71c0-166.004-134.577-300.58-300.58-300.58s-300.58 134.576-300.58 300.58c0 166.003 134.577 300.58 300.58 300.58s300.58-134.577 300.58-300.58z"/><path d="M1200.44 318.71c0-181.99-147.533-329.523-329.522-329.523-181.99 0-329.522 147.533-329.522 329.522 0 181.99 147.532 329.522 329.522 329.522 181.989 0 329.521-147.532 329.521-329.522z"/><path d="M1229.381 318.71c0-197.976-160.488-358.464-358.463-358.464-197.976 0-358.464 160.488-358.464 358.463 0 197.976 160.488 358.464 358.464 358.464 197.975 0 358.463-160.488 358.463-358.464z"/><path d="M1258.328 318.71c0-213.962-173.449-387.411-387.41-387.411-213.962 0-387.41 173.449-387.41 387.41 0 213.962 173.448 387.41 387.41 387.41 213.961 0 387.41-173.448 387.41-387.41z"/><path d="M1287.27 318.71c0-229.944-186.41-416.353-416.352-416.353-229.943 0-416.352 186.41-416.352 416.352 0 229.943 186.41 416.352 416.352 416.352 229.943 0 416.352-186.409 416.352-416.352z"/><path d="M1316.212 318.71c0-245.93-199.365-445.295-445.294-445.295-245.929 0-445.294 199.365-445.294 445.294 0 245.93 199.365 445.294 445.294 445.294 245.929 0 445.294-199.365 445.294-445.294z"/><path d="M1345.155 318.71c0-261.916-212.321-474.237-474.237-474.237-261.915 0-474.236 212.321-474.236 474.236 0 261.915 212.321 474.236 474.236 474.236 261.916 0 474.237-212.32 474.237-474.236z"/><path d="M1374.101 318.71c0-277.902-225.281-503.184-503.183-503.184-277.9 0-503.182 225.282-503.182 503.183 0 277.901 225.281 503.183 503.182 503.183 277.902 0 503.183-225.282 503.183-503.183z"/><path d="M1403.043 318.71c0-293.883-238.242-532.126-532.125-532.126-293.887 0-532.13 238.243-532.13 532.125 0 293.883 238.243 532.125 532.13 532.125 293.883 0 532.125-238.242 532.125-532.125z"/><path d="M1431.986 318.71c0-309.87-251.203-561.067-561.067-561.067-309.869 0-561.072 251.198-561.072 561.066 0 309.869 251.203 561.067 561.072 561.067 309.864 0 561.067-251.198 561.067-561.067z"/></g><g opacity=".417"><path d="M1406.274 69.76c0-12.42-10.07-22.489-22.49-22.489-12.423 0-22.493 10.07-22.493 22.49 0 12.419 10.07 22.488 22.493 22.488 12.42 0 22.49-10.07 22.49-22.489z"/><path d="M1430.447 69.76c0-25.77-20.894-46.664-46.664-46.664-25.77 0-46.664 20.894-46.664 46.664 0 25.77 20.893 46.664 46.664 46.664 25.77 0 46.664-20.893 46.664-46.664z"/><path d="M1454.62 69.76c0-39.121-31.714-70.839-70.84-70.839-39.12 0-70.834 31.718-70.834 70.84 0 39.12 31.714 70.838 70.835 70.838 39.125 0 70.839-31.718 70.839-70.839z"/><path d="M1478.793 69.76c0-52.472-42.538-95.01-95.01-95.01-52.472 0-95.01 42.538-95.01 95.01 0 52.472 42.538 95.01 95.01 95.01 52.472 0 95.01-42.538 95.01-95.01z"/><path d="M1502.966 69.76c0-65.823-53.362-119.185-119.185-119.185-65.818 0-119.18 53.362-119.18 119.185 0 65.823 53.362 119.185 119.18 119.185 65.823 0 119.185-53.362 119.185-119.185z"/><path d="M1527.14 69.76c0-79.177-64.179-143.355-143.356-143.355-79.178 0-143.356 64.178-143.356 143.355 0 79.178 64.178 143.356 143.356 143.356 79.177 0 143.355-64.178 143.355-143.356z"/><path d="M1551.316 69.76c0-92.528-75.006-167.534-167.534-167.534-92.525 0-167.53 75.006-167.53 167.534 0 92.529 75.005 167.535 167.53 167.535 92.528 0 167.534-75.006 167.534-167.535z"/><path d="M1575.49 69.76c0-105.875-85.83-191.705-191.706-191.705-105.88 0-191.71 85.83-191.71 191.705 0 105.875 85.83 191.706 191.71 191.706 105.875 0 191.706-85.83 191.706-191.706z"/><path d="M1599.662 69.76c0-119.226-96.65-215.88-215.88-215.88-119.226 0-215.88 96.654-215.88 215.88s96.654 215.88 215.88 215.88c119.23 0 215.88-96.654 215.88-215.88z"/><path d="M1623.836 69.76c0-132.576-107.475-240.051-240.052-240.051-132.58 0-240.055 107.475-240.055 240.051 0 132.577 107.475 240.051 240.055 240.051 132.577 0 240.052-107.474 240.052-240.05z"/></g></g></svg>