<svg xmlns="http://www.w3.org/2000/svg" width="795" height="175" viewBox="0 0 795 175"><g fill="none" fill-rule="evenodd" stroke="#33829A" stroke-width="2" opacity=".256"><path d="M-65.63 130.43s102.73 30.7 249.486 25.307c146.755-5.394 184.912-60.572 309.164-59.328 124.254 1.245 161.163 64.016 310.145 70.53 189.803 8.297 295.467-26.138 316.992-41.488"/><path d="M-65.63 123.536s102.73 30.7 249.486 25.307C330.61 143.45 368.768 88.272 493.02 89.517c124.254 1.244 161.163 64.015 310.145 70.528 189.803 8.297 295.467-26.137 316.992-41.488"/><path d="M-65.63 116.642S37.1 147.343 183.857 141.95c146.755-5.394 184.912-60.571 309.164-59.327 124.254 1.245 161.163 64.015 310.145 70.528 189.803 8.298 295.467-26.137 316.992-41.487"/><path d="M-65.63 109.75s102.73 30.7 249.486 25.306c146.755-5.392 184.912-60.57 309.164-59.326 124.254 1.244 161.163 64.016 310.145 70.528 189.803 8.298 295.467-26.137 316.992-41.487"/><path d="M-65.63 102.856s102.73 30.7 249.486 25.308C330.61 122.77 368.768 67.592 493.02 68.836c124.254 1.245 161.163 64.016 310.145 70.53 189.803 8.297 295.467-26.138 316.992-41.488"/><path d="M-65.63 95.963s102.73 30.7 249.486 25.307c146.755-5.393 184.912-60.572 309.164-59.327 124.254 1.245 161.163 64.016 310.145 70.529 189.803 8.297 295.467-26.137 316.992-41.488"/><path d="M-65.63 89.07s102.73 30.7 249.486 25.307C330.61 108.983 368.768 53.806 493.02 55.05c124.254 1.245 161.163 64.015 310.145 70.528 189.803 8.298 295.467-26.137 316.992-41.487"/><path d="M-65.63 82.177s102.73 30.7 249.486 25.306c146.755-5.393 184.912-60.57 309.164-59.326 124.254 1.244 161.163 64.015 310.145 70.528 189.803 8.298 295.467-26.137 316.992-41.487"/><path d="M-65.63 75.283s102.73 30.7 249.486 25.308C330.61 95.197 368.768 40.019 493.02 41.263c124.254 1.245 161.163 64.016 310.145 70.53 189.803 8.296 295.467-26.138 316.992-41.488"/><path d="M-65.63 68.39S37.1 99.09 183.857 93.697C330.61 88.304 368.768 33.125 493.02 34.37c124.254 1.245 161.163 64.016 310.145 70.529 189.803 8.297 295.467-26.137 316.992-41.488"/><path d="M-65.63 61.496S37.1 92.197 183.857 86.804C330.61 81.41 368.768 26.233 493.02 27.477c124.254 1.245 161.163 64.015 310.145 70.528 189.803 8.298 295.467-26.137 316.992-41.487"/><path d="M-65.63 54.604S37.1 85.304 183.857 79.91C330.61 74.517 368.768 19.34 493.02 20.584c124.254 1.244 161.163 64.015 310.145 70.528 189.803 8.298 295.467-26.137 316.992-41.487"/><path d="M-65.63 47.71S37.1 78.41 183.857 73.017C330.61 67.624 368.768 12.446 493.02 13.69c124.254 1.245 161.163 64.016 310.145 70.528 189.803 8.298 295.467-26.137 316.992-41.486"/><path d="M-65.63 40.817s102.73 30.7 249.486 25.307C330.61 60.731 368.768 5.552 493.02 6.797 617.274 8.04 654.183 70.813 803.165 77.326c189.803 8.297 295.467-26.137 316.992-41.488"/></g></svg>