<svg xmlns="http://www.w3.org/2000/svg" width="795" height="175" viewBox="0 0 795 175"><g fill="none" fill-rule="evenodd"><g stroke="#2E6175" stroke-width="2" opacity=".256"><path d="M-65.668 128.463s98.013 29.291 238.032 24.146c140.02-5.146 176.424-57.791 294.973-56.604 118.55 1.187 153.764 61.077 295.907 67.291 181.091 7.917 281.905-24.937 302.441-39.583"/><path d="M-65.668 121.886s98.013 29.292 238.032 24.146c140.02-5.146 176.424-57.79 294.973-56.603 118.55 1.187 153.764 61.076 295.907 67.29 181.091 7.917 281.905-24.937 302.441-39.583"/><path d="M-65.668 115.31s98.013 29.29 238.032 24.145c140.02-5.146 176.424-57.79 294.973-56.603 118.55 1.187 153.764 61.076 295.907 67.29 181.091 7.917 281.905-24.937 302.441-39.583"/><path d="M-65.668 108.733s98.013 29.29 238.032 24.145c140.02-5.145 176.424-57.79 294.973-56.603 118.55 1.187 153.764 61.077 295.907 67.29 181.091 7.917 281.905-24.937 302.441-39.582"/><path d="M-65.668 102.156s98.013 29.29 238.032 24.146c140.02-5.146 176.424-57.792 294.973-56.604 118.55 1.187 153.764 61.077 295.907 67.29 181.091 7.917 281.905-24.936 302.441-39.582"/><path d="M-65.668 95.579s98.013 29.29 238.032 24.146c140.02-5.146 176.424-57.792 294.973-56.604 118.55 1.187 153.764 61.077 295.907 67.29 181.091 7.917 281.905-24.936 302.441-39.582"/><path d="M-65.668 89.002s98.013 29.292 238.032 24.146c140.02-5.146 176.424-57.791 294.973-56.604 118.55 1.188 153.764 61.077 295.907 67.291 181.091 7.916 281.905-24.937 302.441-39.583"/><path d="M-65.668 82.425s98.013 29.292 238.032 24.146c140.02-5.146 176.424-57.791 294.973-56.604 118.55 1.188 153.764 61.077 295.907 67.291 181.091 7.917 281.905-24.937 302.441-39.582"/><path d="M-65.668 75.849s98.013 29.29 238.032 24.145c140.02-5.146 176.424-57.791 294.973-56.604 118.55 1.188 153.764 61.077 295.907 67.292 181.091 7.916 281.905-24.938 302.441-39.583"/><path d="M-65.668 69.271s98.013 29.292 238.032 24.146c140.02-5.146 176.424-57.791 294.973-56.604 118.55 1.188 153.764 61.077 295.907 67.292 181.091 7.916 281.905-24.938 302.441-39.583"/><path d="M-65.668 62.695S32.345 91.986 172.364 86.84c140.02-5.146 176.424-57.79 294.973-56.603 118.55 1.187 153.764 61.077 295.907 67.29 181.091 7.917 281.905-24.937 302.441-39.582"/><path d="M-65.668 56.118S32.345 85.41 172.364 80.263c140.02-5.145 176.424-57.79 294.973-56.603 118.55 1.187 153.764 61.077 295.907 67.29 181.091 7.918 281.905-24.937 302.441-39.582"/><path d="M-65.668 49.541s98.013 29.291 238.032 24.145c140.02-5.145 176.424-57.79 294.973-56.603C585.887 18.27 621.1 78.16 763.244 84.373c181.091 7.918 281.905-24.937 302.441-39.582"/><path d="M-65.668 42.964S32.345 72.255 172.364 67.11c140.02-5.146 176.424-57.791 294.973-56.604 118.55 1.188 153.764 61.077 295.907 67.291 181.091 7.917 281.905-24.937 302.441-39.583"/></g><g transform="translate(531.727 33.206)"><path fill="#FFF" d="M.611 25.975h56.217v42.613H.611z"/><circle cx="36.715" cy="33.468" r="21.901" fill="#FFF"/><path fill="#2E6175" fill-rule="nonzero" d="M68.588 37.324a1.24 1.24 0 0 0 1.24-1.24V29.75a1.24 1.24 0 0 0-1.24-1.24H52.875c-.977-7.444-7.133-13.267-14.725-13.727v-3.626h12.258a1.24 1.24 0 0 0 1.24-1.24v-8.49a1.24 1.24 0 0 0-1.24-1.24H36.911a1.24 1.24 0 0 0-1.24 1.24V14.81c-7.338.7-13.22 6.435-14.173 13.7H5.785a1.24 1.24 0 0 0-1.24 1.24v6.334c0 .685.555 1.24 1.24 1.24h3.443v19.902H5.785a1.24 1.24 0 0 0-1.24 1.24V64.8c0 .684.555 1.24 1.24 1.24h62.803a1.24 1.24 0 0 0 1.24-1.24v-6.336a1.24 1.24 0 0 0-1.24-1.24h-2.754V37.325h2.754zM38.151 2.664h11.018v6.013H38.15V2.665zm-.965 14.552c6.662 0 12.185 4.907 13.184 11.294H24.003c.999-6.387 6.521-11.294 13.183-11.294zM7.024 30.989H67.35v3.856H7.024v-3.856zm40.767 26.237V37.324h6.542v19.902h-6.542zm-9.021 0V37.324h6.542v19.902H38.77zm-9.02 0V37.324h6.541v19.902h-6.542zm-9.022 0V37.324h6.542v19.902h-6.542zm-9.021-19.902h6.542v19.902h-6.542V37.324zm55.642 26.237H7.024v-3.856H67.35v3.856zm-3.994-6.335h-6.542V37.324h6.542v19.902z"/></g><path fill="#FFF" d="M171.908 83.815h63.014V130h-63.014z"/><path fill="#FFF" d="M159.006 101.932h72.666v18.664h-72.666z"/><path fill="#2E6175" fill-rule="nonzero" d="M227.912 123.864h23.031V55.555h-23.03v68.31zm-1.5-71.309h26.031a1.5 1.5 0 0 1 1.5 1.5v71.31a1.5 1.5 0 0 1-1.5 1.5h-26.03a1.5 1.5 0 0 1-1.5-1.5v-71.31a1.5 1.5 0 0 1 1.5-1.5z"/><path fill="#2E6175" fill-rule="nonzero" d="M224.91 96.965h-46.99v9.34h8.502a1.5 1.5 0 0 1 1.5 1.5v16.062h36.987V96.965zm-48.49 12.34a1.5 1.5 0 0 1-1.5-1.5v-12.34a1.5 1.5 0 0 1 1.5-1.5h49.99a1.5 1.5 0 0 1 1.5 1.5v29.902a1.5 1.5 0 0 1-1.5 1.5h-39.988a1.5 1.5 0 0 1-1.5-1.5v-16.063h-8.502z"/><path fill="#2E6175" fill-rule="nonzero" d="M166.025 123.867h18.897v-14.563h-18.897v14.563zm-1.5-17.563h21.897a1.5 1.5 0 0 1 1.5 1.5v17.563a1.5 1.5 0 0 1-1.5 1.5h-21.897a1.5 1.5 0 0 1-1.5-1.5v-17.563a1.5 1.5 0 0 1 1.5-1.5zm31.082-12.34V71.459a6.48 6.48 0 1 0-12.96 0v22.507h12.96zm3-22.506v24.007a1.5 1.5 0 0 1-1.5 1.5h-15.96a1.5 1.5 0 0 1-1.5-1.5V71.458c0-5.236 4.241-9.485 9.475-9.485a9.483 9.483 0 0 1 9.485 9.485zm26.305 12.053l-14.928 5.167v5.288h14.928V83.51zm1.5 13.455h-17.928a1.5 1.5 0 0 1-1.5-1.5V87.61a1.5 1.5 0 0 1 1.01-1.417l17.928-6.206a1.5 1.5 0 0 1 1.99 1.417v14.062a1.5 1.5 0 0 1-1.5 1.5z"/><path fill="#2E6175" fill-rule="nonzero" d="M190.622 63.473h-3V47.242h3zM240.928 54.055h-3v-6.813h3z"/><path fill="#2E6175" fill-rule="nonzero" d="M239.428 45.742a1.5 1.5 0 1 1 0 3h-50.306a1.5 1.5 0 0 1 0-3h50.306zm-40.907 64.53h19.927v-6.309H198.52v6.309zm-1.5-9.309h22.927a1.5 1.5 0 0 1 1.5 1.5v9.309a1.5 1.5 0 0 1-1.5 1.5H197.02a1.5 1.5 0 0 1-1.5-1.5v-9.309a1.5 1.5 0 0 1 1.5-1.5zm-25.02 22.9h6.945v-8.205h-6.944v8.205zm-1.5-11.205h9.945l1.5 1.5v11.205l-1.5 1.5h-9.944l-1.5-1.5v-11.205l1.5-1.5zm65.345-42.504h7.782v-7.782h-7.782v7.782zm-1.5-10.782h10.782a1.5 1.5 0 0 1 1.5 1.5v10.782a1.5 1.5 0 0 1-1.5 1.5h-10.782a1.5 1.5 0 0 1-1.5-1.5V60.872a1.5 1.5 0 0 1 1.5-1.5z"/><g><path fill="#FFF" d="M287.105 27.566h55.211v42.367h-55.211z"/><path fill="#FFF" d="M290.335 33.245h36.832v46.499h-36.832z"/><path fill="#2E6175" fill-rule="nonzero" d="M278 22.042v42.186c0 .713.648 1.361 1.36 1.361h19.733v6.124l-4.104.042c-.705.011-1.34.655-1.34 1.361v2.68c0 .712.65 1.36 1.362 1.36h27.217c.712 0 1.36-.648 1.36-1.36v-2.744c0-.72-.662-1.372-1.381-1.36l-4.062.02V65.59h19.733c.712 0 1.36-.649 1.36-1.361V22.04c0-.712-.648-1.36-1.36-1.36h-58.645c-.669.063-1.236.689-1.233 1.36zm2.722 1.36h55.795v36.744h-55.795V23.403zm2.721 2.722v27.898c0 .712.649 1.36 1.361 1.36h48.991v-2.721h-4.082V51.3h-2.722v1.36h-2.722V51.3h-2.722v1.36h-2.721V51.3h-2.722v1.36h-2.722V51.3h-2.721v1.36h-2.722V51.3h-2.722v1.36h-2.722V51.3h-2.721v1.36h-2.722V51.3h-2.722v1.36h-2.721V51.3h-2.722v1.36h-2.722v-2.722h1.361v-2.721h-1.36v-2.722h1.36v-2.722h-1.36v-2.722h1.36v-2.721h-1.36v-2.722h1.36v-2.722h-1.36v-4.763h-2.723zm18.372 4.763c-2.136.17-3.44 1.627-4.295 3.296-.865 1.707-1.46 3.782-2.17 5.784-.708 2.001-1.524 3.922-2.55 5.23-1.027 1.309-2.12 2.02-3.913 2.02v2.722c2.63 0 4.684-1.308 6.06-3.062 1.376-1.754 2.219-3.915 2.956-5.996.737-2.08 1.375-4.11 2.062-5.465.427-.937 1.02-1.557 1.85-1.807.737 0 1.467.528 2.382 1.786.914 1.258 1.855 3.098 2.891 4.997.499.914 1.017 1.848 1.595 2.743-.392.765-.806 1.468-1.276 2.041-1.07 1.306-2.238 2.042-4.231 2.042v2.721c2.77 0 4.897-1.284 6.336-3.04.36-.44.68-.9.978-1.383 1.872 2.276 4.27 3.026 6.294 3.062 2.458 0 4.427-1.196 5.848-2.785.41-.46.778-.956 1.127-1.467.46.911.989 1.782 1.637 2.573 1.44 1.756 3.588 3.04 6.358 3.04v-2.721c-1.993 0-3.183-.736-4.253-2.042-.802-.979-1.466-2.294-2.062-3.742 1.1-1.985 2.035-4.298 3.338-6.018.948-1.226 1.775-1.807 2.977-1.807v-2.722c-2.2 0-3.925 1.29-5.146 2.87-.971 1.258-1.728 2.742-2.466 4.232-.508-1.368-1.044-2.719-1.744-3.891-1.035-1.733-2.688-3.21-4.933-3.21-2.246 0-3.898 1.477-4.933 3.21-1.112 1.987-1.83 4.14-2.51 5.975-.185-.324-.371-.646-.552-.978-1.006-1.843-1.936-3.746-3.062-5.295-1.127-1.548-2.608-2.913-4.593-2.913zm15.65 2.722c1.157 0 1.8.563 2.594 1.892 1.053 2.002 1.706 3.935 2.381 5.742-.586 1.04-1.19 2.005-1.85 2.742-1.088 1.218-2.18 1.872-3.806 1.872-1.625 0-2.843-.68-4.04-1.914a12.223 12.223 0 0 1-.914-1.084c.277-.65.545-1.31.787-1.957.777-2.072 1.46-4.072 2.254-5.4.793-1.33 1.437-1.893 2.594-1.893zm-15.65 31.98h13.609v6.804h-13.609V65.59z"/></g><g><path fill="#FFF" d="M423.993 28.275h50.318v58.106h-50.318z"/><path fill="#2E6175" fill-rule="nonzero" d="M496.386 80.962l-14.752-30.558V29.638h2.213V23h-17.701v6.638h2.212v2.212h-39.826v50.89h24.49a7.433 7.433 0 0 0-.152 1.442c0 4.086 3.324 7.409 7.41 7.409h29.432c4.087 0 7.41-3.323 7.41-7.409 0-1.11-.254-2.224-.736-3.22zm-28.028-55.75h13.276v2.213h-13.276v-2.212zm11.064 4.426V50.91l4.15 8.597H466.42l4.151-8.597V29.638h8.85zm-17.06 33.189h-27.193V47.339h33.19v2.706a5.365 5.365 0 0 0-2.213-.494 5.538 5.538 0 0 0-5.532 5.532c0 2.133 1.252 4.028 3.1 4.943l-1.353 2.801zm2.31-4.786a3.326 3.326 0 0 1-1.845-2.958c0-1.83 1.489-3.32 3.319-3.32.554 0 1.014.146 1.396.332l-2.87 5.946zm5.592 3.68a2.205 2.205 0 0 1-1.906 1.106 2.205 2.205 0 0 1-1.905-1.106h3.81zm-1.906-27.658v6.638h-37.614v-6.638h37.614zm-37.614 8.85h37.614v2.213h-35.401V65.04h28.337l-1.07 2.212h-27.267v2.213h26.2l-1.068 2.212h-25.132v2.213h24.064l-1.069 2.213h-22.995v2.212h21.928l-1.069 2.213h-23.072V42.913zm58.97 46.465h-29.435a5.202 5.202 0 0 1-5.196-5.196c0-.778.178-1.559.516-2.26l9.093-18.833a4.422 4.422 0 0 0 3.666 1.95c2.057 0 3.774-1.414 4.269-3.318h12.013l9.753 20.202c.339.7.517 1.481.517 2.259a5.202 5.202 0 0 1-5.197 5.196z"/><path fill="#2E6175" fill-rule="nonzero" d="M481.634 63.933a4.43 4.43 0 0 0-4.425 4.425 4.43 4.43 0 0 0 4.425 4.426 4.43 4.43 0 0 0 4.425-4.426 4.43 4.43 0 0 0-4.425-4.425zm0 6.638a2.215 2.215 0 0 1-2.212-2.213c0-1.22.992-2.212 2.212-2.212 1.22 0 2.213.992 2.213 2.212 0 1.22-.993 2.213-2.213 2.213zm-14.382 5.532a4.43 4.43 0 0 0-4.425 4.425 4.43 4.43 0 0 0 4.425 4.425 4.43 4.43 0 0 0 4.425-4.425 4.43 4.43 0 0 0-4.425-4.425zm0 6.637a2.215 2.215 0 0 1-2.212-2.212c0-1.22.992-2.213 2.212-2.213 1.22 0 2.213.993 2.213 2.213 0 1.22-.993 2.212-2.213 2.212zM432.957 36.276h2.213v2.213h-2.213zM437.382 36.276h2.213v2.213h-2.213zM441.807 36.276h2.213v2.213h-2.213zM444.02 49.551a5.538 5.538 0 0 0-5.532 5.532 5.538 5.538 0 0 0 5.532 5.531 5.538 5.538 0 0 0 5.531-5.531 5.538 5.538 0 0 0-5.531-5.532zm0 8.85a3.323 3.323 0 0 1-3.32-3.318c0-1.83 1.49-3.32 3.32-3.32 1.83 0 3.319 1.49 3.319 3.32 0 1.83-1.49 3.319-3.32 3.319zm11.063-8.85a5.538 5.538 0 0 0-5.532 5.532 5.538 5.538 0 0 0 5.532 5.531 5.538 5.538 0 0 0 5.531-5.531 5.538 5.538 0 0 0-5.531-5.532zm0 8.85a3.323 3.323 0 0 1-3.32-3.318c0-1.83 1.49-3.32 3.32-3.32 1.83 0 3.319 1.49 3.319 3.32 0 1.83-1.49 3.319-3.32 3.319z"/></g><g transform="translate(336.429 77.706)"><circle cx="23.304" cy="27.639" r="20.304" fill="#FFF"/><path fill="#2E6175" fill-rule="nonzero" d="M23.228.567c1.31 0 2.558.417 3.7 1.115a3.91 3.91 0 0 1 1.965-.549A3.983 3.983 0 0 1 32.86 5.1c0 .97-.352 1.875-.938 2.567.3.594.582 1.208.85 1.859 1.401-.187 2.744-.271 4-.23 3.798.124 6.994 1.35 8.534 4.019 1.894 3.28.69 7.56-2.23 11.72-.24.341-.498.685-.762 1.027.265.342.521.684.762 1.027 2.92 4.159 4.124 8.44 2.23 11.72-.2.347-.44.663-.69.956.09.33.141.67.141 1.027a3.983 3.983 0 0 1-3.965 3.965 3.987 3.987 0 0 1-3.435-1.965c-1.419.093-2.953.018-4.568-.194-.165.404-.335.786-.513 1.168-2.144 4.608-5.26 7.79-9.047 7.79-3.787 0-6.903-3.182-9.047-7.79a27.314 27.314 0 0 1-.513-1.168c-1.311.174-2.569.256-3.754.23a3.982 3.982 0 0 1-3.682 2.496 3.983 3.983 0 0 1-3.966-3.966c0-.344.058-.672.142-.991a6.694 6.694 0 0 1-1.257-1.558c-1.894-3.28-.69-7.561 2.23-11.72.24-.343.497-.685.762-1.027a28.256 28.256 0 0 1-.761-1.027c-2.921-4.16-4.125-8.44-2.231-11.72 1.658-2.872 5.21-4.063 9.418-4.02.988.011 2.029.09 3.099.23.163-.398.337-.79.513-1.168 2.144-4.608 5.26-7.79 9.047-7.79zm0 2.266c-2.47 0-5.036 2.27-6.993 6.48-.093.2-.176.412-.266.62 2.315.481 4.761 1.24 7.259 2.265 2.495-1.028 4.928-1.782 7.241-2.266-.152-.353-.299-.697-.46-1.027-.356.106-.727.16-1.116.16a3.983 3.983 0 0 1-3.965-3.966c0-.62.15-1.193.407-1.717-.698-.356-1.396-.55-2.107-.55zm5.665.566c-.952 0-1.7.748-1.7 1.7s.748 1.7 1.7 1.7 1.7-.748 1.7-1.7-.748-1.7-1.7-1.7zm7.808 8.162c-.966-.032-2.012.03-3.116.16.738 2.248 1.306 4.738 1.664 7.417 2.133 1.65 4.004 3.393 5.577 5.152.14-.187.276-.38.407-.566 2.668-3.799 3.36-7.138 2.125-9.277-1.002-1.736-3.3-2.776-6.657-2.886zm-26.167 0c-3.77-.04-6.356 1.016-7.436 2.886-1.235 2.14-.543 5.478 2.125 9.277.13.186.267.379.407.566 1.573-1.76 3.444-3.503 5.577-5.152.357-2.676.929-5.171 1.664-7.418a22.409 22.409 0 0 0-2.337-.16zm20.767.513c-1.63.326-3.353.824-5.134 1.452a53.579 53.579 0 0 1 3.293 1.735 53.698 53.698 0 0 1 3.169 1.983 37.545 37.545 0 0 0-1.328-5.17zm-16.164.018c-.53 1.57-.967 3.303-1.31 5.152a53.699 53.699 0 0 1 6.462-3.736 37.532 37.532 0 0 0-5.152-1.416zm8.073 2.567a49.734 49.734 0 0 0-5.08 2.567 50.17 50.17 0 0 0-4.763 3.134 50.057 50.057 0 0 0-.337 5.7c0 1.968.128 3.876.337 5.701a50.073 50.073 0 0 0 4.762 3.116 49.417 49.417 0 0 0 5.099 2.568 50.114 50.114 0 0 0 5.099-2.568 50.073 50.073 0 0 0 4.762-3.116c.209-1.825.337-3.732.337-5.7 0-1.964-.11-3.861-.319-5.683a50.14 50.14 0 0 0-4.78-3.152 49.433 49.433 0 0 0-5.117-2.567zm.018 6.87c2.49 0 4.532 2.042 4.532 4.532s-2.042 4.532-4.532 4.532-4.532-2.043-4.532-4.532c0-2.49 2.042-4.533 4.532-4.533zm12.34.796c.085 1.223.124 2.463.124 3.736 0 1.263-.04 2.504-.124 3.718a37.566 37.566 0 0 0 3.806-3.718 37.509 37.509 0 0 0-3.806-3.736zm-24.68.018a37.565 37.565 0 0 0-3.806 3.718 37.56 37.56 0 0 0 3.806 3.718 54.097 54.097 0 0 1-.124-3.718c0-1.264.04-2.504.124-3.718zm12.34 1.452a2.25 2.25 0 0 0-2.266 2.266 2.25 2.25 0 0 0 2.266 2.266 2.25 2.25 0 0 0 2.266-2.266 2.25 2.25 0 0 0-2.266-2.266zm17.616 4.036c-1.576 1.762-3.457 3.502-5.595 5.152a41.693 41.693 0 0 1-1.664 7.4c1.161.137 2.251.2 3.258.16.134-2.058 1.858-3.718 3.948-3.718.952 0 1.827.353 2.514.92.014-.023.039-.046.053-.07 1.235-2.14.543-5.496-2.125-9.295-.128-.183-.252-.365-.389-.549zm-35.232 0c-.137.184-.26.366-.39.549-2.667 3.799-3.359 7.155-2.124 9.295.147.254.332.486.531.708a3.947 3.947 0 0 1 2.603-.992c1.91 0 3.511 1.379 3.877 3.187.866.01 1.79-.063 2.762-.177a41.705 41.705 0 0 1-1.664-7.418c-2.138-1.65-4.019-3.39-5.595-5.152zm27.017 7.046a54.075 54.075 0 0 1-3.17 1.966 54.294 54.294 0 0 1-3.292 1.752 37.833 37.833 0 0 0 5.152 1.434c.53-1.57.968-3.304 1.31-5.152zm-18.802 0c.343 1.854.778 3.596 1.31 5.17 1.64-.328 3.379-.8 5.17-1.434a54.539 54.539 0 0 1-3.31-1.77 54.075 54.075 0 0 1-3.17-1.966zm26.964 4.214c-.952 0-1.7.748-1.7 1.7s.748 1.7 1.7 1.7 1.7-.748 1.7-1.7-.748-1.7-1.7-1.7zm-34.56.567c-.951 0-1.699.747-1.699 1.7 0 .951.748 1.699 1.7 1.699s1.7-.748 1.7-1.7-.748-1.7-1.7-1.7zm16.98.265c-2.494 1.027-4.93 1.8-7.242 2.284.09.206.174.403.266.602 1.957 4.209 4.522 6.48 6.993 6.48 2.47 0 5.036-2.271 6.993-6.48.093-.199.177-.396.266-.602-2.322-.484-4.771-1.25-7.277-2.284z"/></g><g><path fill="#FFF" d="M306.84 70h174.025v16H306.84zM64.186 121.277h200.75v16H64.186z"/><path fill="#2E6175" d="M311.573 80.963l.86-1.219c.637.666 1.414 1.001 2.33 1.005.412 0 .727-.08.945-.24.219-.159.328-.351.328-.577 0-.197-.104-.36-.311-.489a2.273 2.273 0 0 0-.78-.282c-.31-.059-.65-.141-1.017-.247a7.68 7.68 0 0 1-1.018-.368 1.882 1.882 0 0 1-.781-.66c-.21-.301-.315-.668-.315-1.101 0-.63.254-1.16.76-1.587.507-.428 1.181-.642 2.023-.642 1.167 0 2.121.34 2.862 1.02l-.87 1.166c-.576-.534-1.282-.8-2.116-.8h-.016c-.322 0-.576.065-.76.195a.616.616 0 0 0-.277.53c0 .175.105.32.315.437.21.117.47.206.781.269.312.062.65.15 1.013.26.363.111.7.238 1.012.382.312.143.571.364.779.663.208.299.311.665.311 1.098 0 .706-.25 1.275-.752 1.708-.5.434-1.228.65-2.18.65-1.307 0-2.35-.39-3.126-1.17zm9.751-2.626c0-1.12.372-2.034 1.115-2.74.743-.705 1.676-1.057 2.8-1.057 1.372 0 2.39.598 3.057 1.793l-1.343.661a2.006 2.006 0 0 0-.709-.763c-.311-.2-.646-.3-1.004-.3-.666 0-1.218.226-1.655.68-.436.452-.655 1.028-.655 1.726s.218 1.275.653 1.73c.435.454.987.682 1.657.682a1.81 1.81 0 0 0 1.004-.304c.312-.202.548-.457.71-.765l1.342.65c-.68 1.203-1.7 1.804-3.056 1.804-1.121 0-2.054-.354-2.799-1.063-.744-.71-1.117-1.62-1.117-2.734zM332.225 82v-7.337h1.563V82h-1.563zm6.013 0v-7.337h5.194v1.375h-3.63v1.542h3.55v1.375h-3.55v1.67h3.63V82h-5.194zm9.408 0v-7.337h1.606l3.4 4.608v-4.608h1.563V82h-1.51l-3.496-4.786V82h-1.563zm10.665-3.663c0-1.12.371-2.034 1.114-2.74.743-.705 1.677-1.057 2.801-1.057 1.372 0 2.39.598 3.056 1.793l-1.343.661a2.006 2.006 0 0 0-.709-.763c-.311-.2-.646-.3-1.004-.3-.666 0-1.217.226-1.654.68-.437.452-.655 1.028-.655 1.726s.217 1.275.652 1.73c.435.454.987.682 1.657.682a1.81 1.81 0 0 0 1.004-.304c.312-.202.548-.457.71-.765l1.342.65c-.68 1.203-1.699 1.804-3.056 1.804-1.12 0-2.053-.354-2.798-1.063-.745-.71-1.117-1.62-1.117-2.734zM369.21 82v-7.337h5.194v1.375h-3.63v1.542h3.55v1.375h-3.55v1.67h3.63V82h-5.194zm14.825-3.276v-.87h1.982v-2.16h.956v2.16h1.971v.87h-1.97v2.229h-.957v-2.23h-1.982zM398.813 82v-7.337h3.432c.755 0 1.357.22 1.804.66.448.441.672 1.009.672 1.703 0 .602-.16 1.09-.478 1.464a2.11 2.11 0 0 1-1.139.717l1.66 2.793h-1.805l-1.44-2.605h-1.144V82h-1.562zm1.562-3.98h1.65c.315 0 .575-.09.78-.271.207-.181.31-.425.31-.733a.894.894 0 0 0-.31-.71c-.205-.178-.465-.268-.78-.268h-1.65v1.982zm8.506 3.98v-7.337h5.194v1.375h-3.631v1.542h3.55v1.375h-3.55v1.67h3.63V82h-5.193zm8.903-1.037l.86-1.219c.636.666 1.413 1.001 2.33 1.005.412 0 .727-.08.945-.24.219-.159.328-.351.328-.577 0-.197-.104-.36-.311-.489a2.273 2.273 0 0 0-.78-.282c-.31-.059-.65-.141-1.017-.247a7.68 7.68 0 0 1-1.018-.368 1.882 1.882 0 0 1-.781-.66c-.21-.301-.315-.668-.315-1.101 0-.63.254-1.16.76-1.587.507-.428 1.181-.642 2.023-.642 1.167 0 2.121.34 2.862 1.02l-.87 1.166c-.576-.534-1.282-.8-2.116-.8h-.016c-.322 0-.576.065-.76.195a.616.616 0 0 0-.277.53c0 .175.105.32.315.437.209.117.47.206.781.269.312.062.65.15 1.013.26.363.111.7.238 1.012.382.311.143.571.364.779.663.207.299.311.665.311 1.098 0 .706-.25 1.275-.752 1.708-.501.434-1.228.65-2.18.65-1.307 0-2.35-.39-3.126-1.17zm10.1 1.037v-7.337h5.194v1.375h-3.63v1.542h3.55v1.375h-3.55v1.67h3.63V82h-5.194zm8.64 0l2.825-7.337h1.96L444.136 82h-1.773l-.462-1.24h-3.142l-.462 1.24h-1.772zm2.659-2.616h2.288l-1.144-3.158-1.144 3.158zM447.812 82v-7.337h3.432c.755 0 1.357.22 1.804.66.448.441.672 1.009.672 1.703 0 .602-.16 1.09-.478 1.464a2.11 2.11 0 0 1-1.139.717l1.66 2.793h-1.805l-1.44-2.605h-1.143V82h-1.563zm1.563-3.98h1.648c.316 0 .576-.09.782-.271.206-.181.309-.425.309-.733a.894.894 0 0 0-.31-.71c-.205-.178-.465-.268-.78-.268h-1.65v1.982zm8.156.317c0-1.12.371-2.034 1.114-2.74.743-.705 1.677-1.057 2.801-1.057 1.372 0 2.39.598 3.056 1.793l-1.342.661a2.006 2.006 0 0 0-.71-.763c-.31-.2-.646-.3-1.004-.3-.666 0-1.217.226-1.654.68-.437.452-.655 1.028-.655 1.726s.217 1.275.652 1.73c.435.454.988.682 1.657.682a1.81 1.81 0 0 0 1.005-.304c.311-.202.548-.457.709-.765l1.342.65c-.68 1.203-1.699 1.804-3.056 1.804-1.12 0-2.053-.354-2.798-1.063-.745-.71-1.117-1.62-1.117-2.734zM468.43 82v-7.337h1.564v2.884h3.464v-2.884h1.574V82h-1.574v-3.088h-3.464V82h-1.563zM68.726 134v-7.337h1.563V134h-1.563zm6.013 0v-7.337h1.606l3.4 4.608v-4.608h1.563V134h-1.51l-3.496-4.786V134h-1.563zm11.014 0v-7.337h2.895c1.153 0 2.09.338 2.812 1.013.721.675 1.082 1.558 1.082 2.65 0 1.107-.359 1.996-1.077 2.667-.718.671-1.653 1.007-2.806 1.007h-2.906zm1.563-1.375h1.332c.705 0 1.265-.22 1.678-.66.414-.441.62-.987.62-1.639 0-.666-.199-1.214-.598-1.643-.4-.43-.962-.645-1.69-.645h-1.342v4.587zm9.332-1.563v-4.399h1.585v4.356c0 .526.15.946.451 1.26.3.313.726.47 1.276.47s.973-.157 1.27-.47c.297-.314.446-.734.446-1.26v-4.356h1.595v4.399c0 .938-.28 1.685-.84 2.24-.56.555-1.384.832-2.469.832s-1.908-.277-2.47-.832c-.562-.555-.844-1.302-.844-2.24zm10.568 1.901l.86-1.219c.637.666 1.414 1.001 2.33 1.005.413 0 .728-.08.946-.24.218-.159.328-.351.328-.577 0-.197-.104-.36-.312-.489a2.273 2.273 0 0 0-.779-.282c-.311-.059-.65-.141-1.017-.247a7.68 7.68 0 0 1-1.018-.368 1.882 1.882 0 0 1-.782-.66c-.21-.301-.314-.668-.314-1.101 0-.63.253-1.16.76-1.587.507-.428 1.18-.642 2.022-.642 1.168 0 2.122.34 2.863 1.02l-.87 1.166c-.577-.534-1.282-.8-2.116-.8h-.016c-.323 0-.576.065-.76.195a.616.616 0 0 0-.277.53c0 .175.105.32.314.437.21.117.47.206.782.269.311.062.649.15 1.012.26.364.111.701.238 1.013.382.311.143.57.364.778.663.208.299.312.665.312 1.098 0 .706-.25 1.275-.752 1.708-.501.434-1.228.65-2.18.65-1.308 0-2.35-.39-3.127-1.17zm9.505-4.925v-1.375h5.854v1.375h-2.137V134h-1.569v-5.962h-2.148zm9.848 5.962v-7.337H130c.756 0 1.357.22 1.805.66.447.441.671 1.009.671 1.703 0 .602-.16 1.09-.478 1.464a2.11 2.11 0 0 1-1.139.717l1.66 2.793h-1.805l-1.44-2.605h-1.143V134h-1.563zm1.563-3.98h1.649c.315 0 .575-.09.781-.271.206-.181.31-.425.31-.733a.894.894 0 0 0-.31-.71c-.206-.178-.466-.268-.781-.268h-1.65v1.982zm7.538-3.357h1.784l1.815 2.938 1.81-2.938h1.773l-2.804 4.335V134h-1.563v-3.002l-2.815-4.335zm16.275 4.06v-.87h1.982v-2.159h.956v2.16h1.972v.87h-1.972v2.229h-.956v-2.23h-1.982zM166.721 134v-7.337h1.563V134h-1.563zm6.013 0v-7.337h1.606l3.4 4.608v-4.608h1.563V134h-1.51l-3.496-4.786V134h-1.563zm11.014 0v-7.337h1.606l3.4 4.608v-4.608h1.562V134h-1.509l-3.496-4.786V134h-1.563zm10.664-3.663c0-1.107.36-2.016 1.082-2.729.722-.712 1.64-1.068 2.753-1.068 1.107 0 2.021.358 2.745 1.074.723.716 1.085 1.624 1.085 2.723 0 1.1-.362 2.007-1.085 2.723-.724.716-1.638 1.074-2.745 1.074-1.114 0-2.031-.356-2.753-1.069-.721-.712-1.082-1.622-1.082-2.728zm1.606 0c0 .698.205 1.275.615 1.73.41.454.949.682 1.617.682s1.205-.228 1.611-.683c.406-.454.61-1.03.61-1.73 0-.697-.204-1.273-.61-1.726-.406-.453-.944-.68-1.614-.68-.673 0-1.213.227-1.62.68-.406.453-.609 1.029-.609 1.727zm9.166-3.674h1.773l2.03 5.634 2.035-5.634h1.773L209.97 134h-1.96l-2.826-7.337zM215.188 134l2.825-7.337h1.96L222.8 134h-1.773l-.462-1.24h-3.142l-.462 1.24h-1.772zm2.659-2.616h2.288l-1.144-3.158-1.144 3.158zm7.474-3.346v-1.375h5.854v1.375h-2.137V134h-1.569v-5.962h-2.148zm9.848 5.962v-7.337h1.563V134h-1.563zm5.664-3.663c0-1.107.36-2.016 1.082-2.729.722-.712 1.64-1.068 2.753-1.068 1.106 0 2.021.358 2.745 1.074.723.716 1.085 1.624 1.085 2.723 0 1.1-.362 2.007-1.085 2.723-.724.716-1.639 1.074-2.745 1.074-1.114 0-2.031-.356-2.753-1.069-.721-.712-1.082-1.622-1.082-2.728zm1.606 0c0 .698.205 1.275.615 1.73.41.454.949.682 1.617.682.667 0 1.205-.228 1.611-.683.406-.454.61-1.03.61-1.73 0-.697-.204-1.273-.61-1.726-.406-.453-.944-.68-1.614-.68-.673 0-1.213.227-1.62.68-.406.453-.609 1.029-.609 1.727zM252.593 134v-7.337h1.606l3.4 4.608v-4.608h1.563V134h-1.51l-3.496-4.786V134h-1.563z"/><path fill="#FFF" d="M554.563 87h129.438v16H554.563z"/><path fill="#2E6175" d="M559.157 95.337c0-1.12.372-2.034 1.115-2.74.743-.705 1.676-1.057 2.8-1.057 1.372 0 2.39.598 3.057 1.793l-1.343.661a2.006 2.006 0 0 0-.709-.763c-.311-.2-.646-.3-1.004-.3-.666 0-1.218.226-1.655.68-.436.452-.655 1.028-.655 1.726s.218 1.275.653 1.73c.435.454.987.682 1.657.682a1.81 1.81 0 0 0 1.004-.304c.312-.202.548-.457.71-.765l1.342.65c-.68 1.203-1.7 1.804-3.056 1.804-1.121 0-2.054-.354-2.799-1.063-.744-.71-1.117-1.62-1.117-2.734zM570.058 99v-7.337h1.563V99h-1.563zm5.245-7.337h1.773l2.03 5.634 2.036-5.634h1.772L580.09 99h-1.96l-2.826-7.337zM586.591 99v-7.337h1.563V99h-1.563zm5.664-3.663c0-1.12.371-2.034 1.114-2.74.743-.705 1.677-1.057 2.801-1.057 1.372 0 2.39.598 3.057 1.793l-1.343.661a2.006 2.006 0 0 0-.71-.763c-.31-.2-.646-.3-1.004-.3-.666 0-1.217.226-1.654.68-.437.452-.655 1.028-.655 1.726s.217 1.275.652 1.73c.435.454.988.682 1.657.682a1.81 1.81 0 0 0 1.005-.304c.311-.202.548-.457.709-.765l1.343.65c-.68 1.203-1.7 1.804-3.057 1.804-1.12 0-2.053-.354-2.798-1.063-.745-.71-1.117-1.62-1.117-2.734zm16.318.387v-.87h1.982v-2.16h.956v2.16h1.97v.87h-1.97v2.229h-.956v-2.23h-1.982zM623.349 99v-7.337h3.432c.77 0 1.373.226 1.81.677.437.451.656 1.013.656 1.686 0 .666-.22 1.226-.661 1.679-.44.453-1.042.68-1.805.68h-1.869V99h-1.563zm1.563-3.99h1.649c.315 0 .576-.091.782-.272a.902.902 0 0 0 .308-.712c0-.3-.103-.54-.308-.72-.206-.178-.467-.268-.782-.268h-1.649v1.971zm8.312 1.052v-4.399h1.585v4.356c0 .526.15.946.45 1.26.302.313.727.47 1.276.47.55 0 .973-.157 1.27-.47.298-.314.446-.734.446-1.26v-4.356h1.596v4.399c0 .938-.28 1.685-.84 2.24-.561.555-1.384.832-2.469.832s-1.908-.277-2.47-.832c-.563-.555-.844-1.302-.844-2.24zM644.297 99v-7.337h3.862c.666 0 1.184.182 1.555.545.37.364.556.805.556 1.324 0 .44-.121.813-.363 1.117a1.5 1.5 0 0 1-.9.564c.398.058.732.257 1.002.6.27.341.406.74.406 1.194 0 .58-.186 1.058-.556 1.432-.371.374-.896.561-1.577.561h-3.985zm1.563-1.375h2.025c.293 0 .523-.073.687-.22.165-.147.247-.353.247-.618a.788.788 0 0 0-.247-.599c-.164-.156-.394-.233-.687-.233h-2.025v1.67zm0-3.045h1.96c.265 0 .474-.07.626-.21.152-.14.228-.328.228-.564a.722.722 0 0 0-.23-.553c-.155-.143-.362-.215-.624-.215h-1.96v1.542zM654.52 99v-7.337h1.574v5.962h3.099V99h-4.673zm8.726 0v-7.337h1.563V99h-1.563zm5.664-3.663c0-1.12.371-2.034 1.114-2.74.743-.705 1.677-1.057 2.801-1.057 1.372 0 2.39.598 3.056 1.793l-1.342.661a2.006 2.006 0 0 0-.71-.763c-.311-.2-.646-.3-1.004-.3-.666 0-1.217.226-1.654.68-.437.452-.655 1.028-.655 1.726s.217 1.275.652 1.73c.435.454.988.682 1.657.682a1.81 1.81 0 0 0 1.005-.304c.311-.202.547-.457.709-.765l1.342.65c-.68 1.203-1.699 1.804-3.056 1.804-1.12 0-2.053-.354-2.798-1.063-.745-.71-1.117-1.62-1.117-2.734z"/></g></g></svg>