<svg xmlns="http://www.w3.org/2000/svg" width="489" height="229" viewBox="0 0 489 229"><g fill="none" fill-rule="evenodd"><g stroke="#1A8DBA" opacity=".292"><path d="M163.564 87.153a4.864 4.864 0 1 0-9.727 0 4.864 4.864 0 0 0 9.727 0z"/><path d="M168.791 87.153c0-5.573-4.518-10.092-10.091-10.092-5.573 0-10.091 4.519-10.091 10.092s4.518 10.09 10.091 10.09c5.573 0 10.091-4.517 10.091-10.09z"/><path d="M174.019 87.153c0-8.46-6.859-15.32-15.32-15.32-8.46 0-15.318 6.86-15.318 15.32s6.859 15.319 15.319 15.319 15.319-6.86 15.319-15.32z"/><path d="M179.246 87.153c0-11.347-9.199-20.546-20.546-20.546s-20.546 9.199-20.546 20.546 9.199 20.546 20.546 20.546 20.546-9.2 20.546-20.546z"/><path d="M184.474 87.153c0-14.235-11.54-25.774-25.774-25.774-14.234 0-25.773 11.54-25.773 25.774 0 14.234 11.54 25.774 25.773 25.774 14.234 0 25.774-11.54 25.774-25.774z"/><path d="M189.701 87.153c0-17.123-13.879-31.001-31-31.001-17.123 0-31.002 13.878-31.002 31 0 17.123 13.879 31.002 31.001 31.002s31.001-13.879 31.001-31.001z"/><path d="M194.93 87.153c0-20.01-16.22-36.23-36.23-36.23-20.009 0-36.229 16.22-36.229 36.23 0 20.01 16.22 36.23 36.229 36.23 20.01 0 36.23-16.22 36.23-36.23z"/><path d="M200.157 87.153c0-22.896-18.561-41.457-41.457-41.457s-41.457 18.561-41.457 41.457c0 22.895 18.56 41.456 41.457 41.456 22.896 0 41.457-18.56 41.457-41.456z"/><path d="M205.384 87.153c0-25.783-20.9-46.685-46.684-46.685-25.783 0-46.685 20.902-46.685 46.685 0 25.782 20.902 46.684 46.685 46.684 25.784 0 46.684-20.902 46.684-46.684z"/><path d="M210.612 87.153c0-28.67-23.242-51.912-51.912-51.912-28.67 0-51.912 23.242-51.912 51.912 0 28.67 23.242 51.911 51.912 51.911 28.67 0 51.912-23.241 51.912-51.911z"/></g><g stroke="#1A8DBA" opacity=".295"><path d="M276.412 114.338a7.688 7.688 0 1 0-15.376 0 7.688 7.688 0 0 0 15.376 0z"/><path d="M281.962 114.338c0-7.311-5.926-13.239-13.238-13.239-7.31 0-13.238 5.928-13.238 13.239 0 7.31 5.927 13.238 13.238 13.238 7.312 0 13.238-5.928 13.238-13.238z"/><path d="M287.512 114.338c0-10.377-8.412-18.789-18.788-18.789s-18.788 8.412-18.788 18.789c0 10.376 8.412 18.788 18.788 18.788s18.788-8.412 18.788-18.788z"/><path d="M293.063 114.338c0-13.442-10.896-24.34-24.339-24.34-13.442 0-24.338 10.898-24.338 24.34s10.896 24.339 24.338 24.339c13.443 0 24.34-10.897 24.34-24.34z"/><path d="M298.613 114.338c0-16.508-13.381-29.89-29.889-29.89-16.507 0-29.89 13.382-29.89 29.89 0 16.507 13.383 29.889 29.89 29.889 16.508 0 29.89-13.382 29.89-29.89z"/><path d="M304.163 114.338c0-19.573-15.866-35.44-35.439-35.44-19.572 0-35.44 15.867-35.44 35.44 0 19.572 15.868 35.439 35.44 35.439 19.573 0 35.44-15.867 35.44-35.44z"/><path d="M309.714 114.338c0-22.638-18.352-40.99-40.99-40.99s-40.99 18.352-40.99 40.99c0 22.637 18.352 40.989 40.99 40.989s40.99-18.352 40.99-40.99z"/><path d="M315.264 114.338c0-25.704-20.837-46.54-46.54-46.54s-46.54 20.836-46.54 46.54c0 25.703 20.837 46.54 46.54 46.54s46.54-20.837 46.54-46.54z"/><path d="M320.815 114.338c0-28.77-23.322-52.09-52.09-52.09-28.77 0-52.091 23.32-52.091 52.09 0 28.768 23.321 52.09 52.09 52.09 28.77 0 52.09-23.322 52.09-52.09z"/><path d="M326.365 114.338c0-31.834-25.807-57.64-57.64-57.64-31.834 0-57.641 25.806-57.641 57.64 0 31.833 25.807 57.64 57.64 57.64 31.834 0 57.64-25.807 57.64-57.64z"/><path d="M331.915 114.338c0-34.9-28.292-63.19-63.19-63.19-34.9 0-63.191 28.29-63.191 63.19 0 34.899 28.291 63.19 63.19 63.19 34.9 0 63.19-28.291 63.19-63.19z"/><path d="M337.465 114.338c0-37.965-30.776-68.74-68.74-68.74-37.965 0-68.741 30.775-68.741 68.74 0 37.964 30.776 68.74 68.74 68.74 37.965 0 68.74-30.776 68.74-68.74z"/><path d="M343.016 114.338c0-41.03-33.262-74.292-74.292-74.292s-74.291 33.262-74.291 74.292 33.261 74.29 74.291 74.29c41.03 0 74.292-33.26 74.292-74.29z"/><path d="M348.566 114.338c0-44.095-35.747-79.842-79.842-79.842-44.094 0-79.84 35.747-79.84 79.842 0 44.094 35.746 79.841 79.84 79.841 44.095 0 79.842-35.747 79.842-79.841z"/><path d="M354.116 114.338c0-47.16-38.231-85.392-85.392-85.392-47.16 0-85.39 38.231-85.39 85.392 0 47.16 38.23 85.391 85.39 85.391 47.16 0 85.392-38.231 85.392-85.391z"/><path d="M359.666 114.338c0-50.226-40.716-90.942-90.941-90.942-50.226 0-90.942 40.716-90.942 90.942 0 50.225 40.716 90.941 90.942 90.941 50.225 0 90.94-40.716 90.94-90.941z"/><path d="M365.217 114.338c0-53.292-43.201-96.493-96.492-96.493-53.292 0-96.493 43.201-96.493 96.493 0 53.291 43.201 96.492 96.493 96.492 53.29 0 96.492-43.201 96.492-96.492z"/><path d="M370.767 114.338c0-56.356-45.686-102.043-102.042-102.043-56.357 0-102.044 45.687-102.044 102.043 0 56.356 45.687 102.042 102.044 102.042 56.356 0 102.042-45.686 102.042-102.042z"/><path d="M376.317 114.338c0-59.422-48.172-107.593-107.592-107.593-59.422 0-107.594 48.171-107.594 107.593 0 59.421 48.172 107.592 107.594 107.592 59.42 0 107.592-48.17 107.592-107.592z"/></g><g stroke="#1A8DBA" opacity=".292"><path d="M375.908 154.058a4.864 4.864 0 1 0-9.727 0 4.864 4.864 0 0 0 9.727 0z"/><path d="M381.135 154.058c0-5.573-4.518-10.092-10.09-10.092-5.574 0-10.092 4.519-10.092 10.092s4.518 10.09 10.091 10.09c5.573 0 10.091-4.517 10.091-10.09z"/><path d="M386.363 154.058c0-8.46-6.858-15.32-15.32-15.32-8.46 0-15.318 6.86-15.318 15.32s6.859 15.319 15.319 15.319 15.319-6.86 15.319-15.32z"/><path d="M391.59 154.058c0-11.347-9.199-20.546-20.546-20.546s-20.546 9.199-20.546 20.546 9.199 20.546 20.546 20.546 20.546-9.2 20.546-20.546z"/><path d="M396.818 154.058c0-14.235-11.54-25.774-25.774-25.774-14.234 0-25.773 11.54-25.773 25.774 0 14.234 11.54 25.774 25.773 25.774 14.234 0 25.774-11.54 25.774-25.774z"/><path d="M402.045 154.058c0-17.123-13.878-31.001-31-31.001-17.123 0-31.002 13.878-31.002 31 0 17.123 13.879 31.002 31.001 31.002 17.123 0 31.001-13.879 31.001-31.001z"/><path d="M407.273 154.058c0-20.01-16.22-36.23-36.23-36.23-20.008 0-36.228 16.22-36.228 36.23 0 20.01 16.22 36.23 36.229 36.23 20.01 0 36.23-16.22 36.23-36.23z"/><path d="M412.501 154.058c0-22.896-18.561-41.457-41.457-41.457s-41.457 18.561-41.457 41.457c0 22.895 18.56 41.456 41.457 41.456 22.896 0 41.457-18.56 41.457-41.456z"/><path d="M417.728 154.058c0-25.783-20.9-46.685-46.684-46.685-25.783 0-46.685 20.902-46.685 46.685 0 25.782 20.902 46.684 46.685 46.684 25.784 0 46.684-20.902 46.684-46.684z"/><path d="M422.956 154.058c0-28.67-23.242-51.912-51.912-51.912-28.67 0-51.912 23.242-51.912 51.912 0 28.67 23.242 51.911 51.912 51.911 28.67 0 51.912-23.241 51.912-51.911z"/></g><path fill="#FFF" d="M195.393 107.436h232.295V126H195.393z"/><path fill="#2B7795" d="M200.206 120.586l1.172-1.662c.869.908 1.928 1.365 3.178 1.37.562 0 .992-.11 1.29-.326.297-.218.446-.48.446-.788 0-.268-.141-.49-.425-.666-.283-.176-.637-.304-1.062-.385-.424-.08-.887-.193-1.387-.337-.501-.144-.964-.311-1.388-.501-.425-.19-.78-.491-1.066-.901-.286-.41-.429-.911-.429-1.502 0-.86.346-1.58 1.037-2.164.69-.584 1.61-.875 2.757-.875 1.592 0 2.893.463 3.904 1.391l-1.186 1.59c-.786-.728-1.748-1.092-2.886-1.092h-.022c-.44 0-.785.09-1.036.268a.84.84 0 0 0-.378.721c0 .24.143.438.429.597a3.7 3.7 0 0 0 1.066.366c.424.086.885.204 1.38.355.496.152.956.325 1.38.52.426.196.78.497 1.063.905.283.408.425.907.425 1.498 0 .962-.342 1.738-1.026 2.329-.683.59-1.675.886-2.973.886-1.783 0-3.204-.532-4.263-1.597zm13.297-3.581c0-1.528.507-2.774 1.52-3.735 1.013-.962 2.286-1.443 3.82-1.443 1.87 0 3.259.815 4.167 2.446l-1.83.9a2.735 2.735 0 0 0-.968-1.04 2.484 2.484 0 0 0-1.37-.41c-.908 0-1.66.31-2.255.927-.596.618-.894 1.403-.894 2.355s.297 1.738.89 2.358c.593.62 1.347.93 2.26.93.488 0 .944-.137 1.37-.413.424-.276.746-.624.966-1.044l1.831.886c-.928 1.64-2.317 2.461-4.167 2.461-1.529 0-2.8-.483-3.816-1.45s-1.524-2.21-1.524-3.728zM228.368 122v-10.005h2.131V122h-2.13zm8.2 0v-10.005h7.082v1.875h-4.95v2.102h4.84v1.875h-4.84v2.278h4.95V122h-7.082zm12.829 0v-10.005h2.19l4.636 6.284v-6.284h2.131V122h-2.058l-4.768-6.526V122h-2.131zm14.542-4.995c0-1.528.507-2.774 1.52-3.735 1.013-.962 2.286-1.443 3.82-1.443 1.87 0 3.259.815 4.167 2.446l-1.831.9a2.735 2.735 0 0 0-.967-1.04 2.484 2.484 0 0 0-1.37-.41c-.908 0-1.66.31-2.255.927-.596.618-.894 1.403-.894 2.355s.297 1.738.89 2.358c.593.62 1.346.93 2.26.93.488 0 .944-.137 1.37-.413.424-.276.746-.624.966-1.044l1.831.886c-.928 1.64-2.317 2.461-4.167 2.461-1.529 0-2.8-.483-3.816-1.45s-1.524-2.21-1.524-3.728zM278.804 122v-10.005h7.083v1.875h-4.952v2.102h4.842v1.875h-4.842v2.278h4.952V122h-7.083zm20.216-4.468v-1.186h2.702V113.4h1.304v2.945h2.688v1.186h-2.688v3.04h-1.304v-3.04h-2.702zM319.17 122v-10.005h4.68c1.03 0 1.85.3 2.46.901.61.6.916 1.375.916 2.322 0 .82-.218 1.485-.652 1.996-.435.51-.952.836-1.553.977l2.263 3.809h-2.46l-1.963-3.552h-1.56V122h-2.132zm2.13-5.427h2.249c.43 0 .785-.124 1.066-.37.28-.247.42-.58.42-1 0-.4-.14-.723-.42-.967-.281-.244-.636-.366-1.066-.366H321.3v2.703zM332.9 122v-10.005h7.082v1.875h-4.951v2.102h4.841v1.875h-4.84l-.001 2.278h4.951V122H332.9zm12.14-1.414l1.172-1.662c.869.908 1.929 1.365 3.179 1.37.561 0 .99-.11 1.289-.326.297-.218.446-.48.446-.788 0-.268-.141-.49-.424-.666-.284-.176-.638-.304-1.062-.385-.425-.08-.888-.193-1.388-.337-.5-.144-.964-.311-1.388-.501-.425-.19-.78-.491-1.066-.901-.286-.41-.428-.911-.428-1.502 0-.86.345-1.58 1.036-2.164.69-.584 1.61-.875 2.757-.875 1.592 0 2.894.463 3.904 1.391l-1.186 1.59c-.786-.728-1.748-1.092-2.886-1.092h-.022c-.44 0-.785.09-1.036.268a.84.84 0 0 0-.378.721c0 .24.143.438.429.597a3.7 3.7 0 0 0 1.066.366c.424.086.885.204 1.38.355.496.152.956.325 1.38.52.426.196.78.497 1.063.905.283.408.425.907.425 1.498 0 .962-.342 1.738-1.026 2.329-.683.59-1.675.886-2.973.886-1.783 0-3.203-.532-4.263-1.597zM358.812 122v-10.005h7.083v1.875h-4.951v2.102h4.841v1.875h-4.841v2.278h4.951V122h-7.083zm11.782 0l3.852-10.005h2.674L380.972 122h-2.417l-.63-1.692h-4.284l-.63 1.692h-2.417zm3.625-3.567h3.12l-1.56-4.307-1.56 4.307zM385.986 122v-10.005h4.68c1.03 0 1.85.3 2.461.901.61.6.916 1.375.916 2.322 0 .82-.218 1.485-.652 1.996-.435.51-.952.836-1.553.977l2.263 3.809h-2.46l-1.964-3.552h-1.56V122h-2.131zm2.131-5.427h2.249c.43 0 .785-.124 1.066-.37.28-.247.42-.58.42-1 0-.4-.14-.723-.42-.967-.281-.244-.636-.366-1.066-.366h-2.249v2.703zm11.122.432c0-1.528.507-2.774 1.52-3.735 1.013-.962 2.287-1.443 3.82-1.443 1.87 0 3.26.815 4.167 2.446l-1.83.9a2.735 2.735 0 0 0-.968-1.04 2.484 2.484 0 0 0-1.37-.41c-.907 0-1.66.31-2.255.927-.596.618-.894 1.403-.894 2.355s.297 1.738.89 2.358c.594.62 1.347.93 2.26.93.488 0 .945-.137 1.37-.413.424-.276.747-.624.966-1.044l1.831.886c-.927 1.64-2.317 2.461-4.167 2.461-1.528 0-2.8-.483-3.816-1.45s-1.524-2.21-1.524-3.728zM414.104 122v-10.005h2.132v3.933h4.724v-3.933h2.146V122h-2.146v-4.211h-4.724V122h-2.132z"/><path fill="#FFF" d="M6.102 75.656h268.275v18.656H6.102z"/><path fill="#2B7795" d="M9.965 90.312V80.307h2.132v10.005H9.965zm8.2 0V80.307h2.19l4.636 6.284v-6.284h2.132v10.005h-2.058l-4.769-6.526v6.526h-2.13zm15.019 0V80.307h3.948c1.572 0 2.85.46 3.834 1.38.984.921 1.476 2.126 1.476 3.615 0 1.509-.49 2.721-1.469 3.637-.979.915-2.255 1.373-3.827 1.373h-3.962zm2.131-1.875h1.817c.961 0 1.724-.3 2.288-.901.564-.6.846-1.345.846-2.234 0-.908-.272-1.655-.816-2.241-.545-.586-1.313-.879-2.304-.879h-1.83v6.255zm12.726-2.131v-5.999h2.16v5.94c0 .718.206 1.29.616 1.717.41.428.99.641 1.74.641s1.327-.213 1.732-.64c.405-.428.608-1 .608-1.718v-5.94h2.175v5.999c0 1.279-.382 2.297-1.146 3.054-.764.757-1.886 1.135-3.366 1.135-1.48 0-2.602-.378-3.369-1.135-.766-.757-1.15-1.775-1.15-3.054zm14.411 2.592l1.172-1.662c.869.908 1.929 1.364 3.179 1.37.561 0 .99-.11 1.289-.327.298-.217.446-.48.446-.787 0-.269-.141-.49-.424-.666-.284-.176-.638-.304-1.062-.385-.425-.08-.888-.193-1.388-.337-.5-.144-.963-.311-1.388-.502-.425-.19-.78-.49-1.066-.9-.286-.41-.428-.911-.428-1.502 0-.86.345-1.58 1.036-2.164.69-.584 1.61-.876 2.758-.876 1.591 0 2.893.464 3.903 1.392l-1.186 1.59c-.786-.728-1.748-1.092-2.886-1.092h-.022c-.44 0-.785.09-1.036.267a.84.84 0 0 0-.377.722c0 .24.142.438.428.597a3.7 3.7 0 0 0 1.066.366c.424.085.885.204 1.38.355.496.152.956.325 1.38.52.426.196.78.497 1.063.905.283.408.425.907.425 1.498 0 .962-.342 1.738-1.026 2.329-.683.59-1.674.886-2.973.886-1.783 0-3.203-.532-4.263-1.597zm12.96-6.716v-1.875h7.984v1.875H80.48v8.13h-2.139v-8.13h-2.93zm13.43 8.13V80.307h4.68c1.03 0 1.85.3 2.46.9.611.601.916 1.375.916 2.323 0 .82-.217 1.485-.651 1.995-.435.51-.953.837-1.553.978l2.263 3.809h-2.46l-1.964-3.552h-1.56v3.552h-2.131zm2.131-5.427h2.249c.43 0 .785-.124 1.065-.37.281-.247.422-.58.422-1 0-.4-.14-.723-.422-.967-.28-.244-.636-.366-1.065-.366h-2.249v2.703zm10.28-4.578h2.432l2.475 4.006 2.469-4.006h2.417l-3.824 5.91v4.095h-2.131v-4.094l-3.838-5.911zm22.193 5.537v-1.186h2.703v-2.945h1.303v2.945h2.688v1.186h-2.688v3.04h-1.303v-3.04h-2.703zm20.15 4.468V80.307h2.131v10.005h-2.131zm8.2 0V80.307h2.19l4.636 6.284v-6.284h2.131v10.005h-2.058l-4.768-6.526v6.526h-2.132zm15.018 0V80.307h2.19l4.636 6.284v-6.284h2.132v10.005h-2.058l-4.769-6.526v6.526h-2.13zm14.543-4.995c0-1.51.492-2.75 1.476-3.721.983-.972 2.235-1.457 3.753-1.457 1.509 0 2.757.488 3.743 1.464.986.977 1.48 2.215 1.48 3.714s-.494 2.737-1.48 3.713c-.986.977-2.234 1.465-3.743 1.465-1.518 0-2.77-.486-3.753-1.458-.984-.971-1.476-2.211-1.476-3.72zm2.19 0c0 .952.28 1.738.838 2.358.56.62 1.294.93 2.205.93.91 0 1.643-.31 2.197-.93.554-.62.831-1.406.831-2.358 0-.952-.277-1.737-.83-2.355-.555-.618-1.289-.927-2.202-.927-.918 0-1.654.31-2.208.927-.554.618-.831 1.403-.831 2.355zm12.499-5.01h2.417l2.768 7.683 2.776-7.683h2.417l-3.852 10.005h-2.674l-3.852-10.005zm13.641 10.005l3.853-10.005h2.673l3.853 10.005h-2.417l-.63-1.692h-4.285l-.63 1.692h-2.417zm3.626-3.567h3.12l-1.56-4.307-1.56 4.307zm10.192-4.563v-1.875h7.983v1.875h-2.915v8.13h-2.138v-8.13h-2.93zm13.43 8.13V80.307h2.13v10.005h-2.13zm7.723-4.995c0-1.51.492-2.75 1.476-3.721.984-.972 2.235-1.457 3.753-1.457 1.51 0 2.757.488 3.743 1.464.986.977 1.48 2.215 1.48 3.714s-.494 2.737-1.48 3.713c-.986.977-2.234 1.465-3.743 1.465-1.518 0-2.77-.486-3.753-1.458-.984-.971-1.476-2.211-1.476-3.72zm2.19 0c0 .952.28 1.738.838 2.358.56.62 1.294.93 2.205.93.91 0 1.643-.31 2.197-.93.555-.62.832-1.406.832-2.358 0-.952-.277-1.737-.832-2.355-.554-.618-1.287-.927-2.2-.927-.919 0-1.655.31-2.209.927-.554.618-.831 1.403-.831 2.355zm13.847 4.995V80.307h2.19l4.636 6.284v-6.284h2.131v10.005h-2.058l-4.768-6.526v6.526h-2.131z"/><g><path fill="#FFF" d="M315.872 139.355h168.563v19.387H315.872z"/><path fill="#2B7795" d="M320.603 149.747c0-1.528.507-2.774 1.52-3.735 1.013-.962 2.286-1.443 3.82-1.443 1.87 0 3.259.815 4.167 2.446l-1.831.9a2.735 2.735 0 0 0-.967-1.04 2.484 2.484 0 0 0-1.37-.41c-.908 0-1.66.31-2.256.927-.595.618-.893 1.403-.893 2.355s.297 1.738.89 2.358c.593.62 1.346.93 2.26.93.488 0 .944-.137 1.369-.413.425-.276.747-.624.967-1.044l1.83.886c-.927 1.64-2.316 2.461-4.167 2.461-1.528 0-2.8-.483-3.816-1.45-1.015-.967-1.523-2.21-1.523-3.728zm14.865 4.995v-10.005h2.131v10.005h-2.131zm7.152-10.005h2.417l2.769 7.683 2.776-7.683h2.417l-3.853 10.005h-2.673l-3.853-10.005zm15.392 10.005v-10.005h2.132v10.005h-2.132zm7.724-4.995c0-1.528.507-2.774 1.52-3.735 1.013-.962 2.286-1.443 3.82-1.443 1.87 0 3.259.815 4.167 2.446l-1.831.9a2.735 2.735 0 0 0-.967-1.04 2.484 2.484 0 0 0-1.37-.41c-.908 0-1.66.31-2.255.927-.596.618-.894 1.403-.894 2.355s.297 1.738.89 2.358c.593.62 1.346.93 2.26.93.488 0 .944-.137 1.37-.413.424-.276.746-.624.966-1.044l1.83.886c-.927 1.64-2.316 2.461-4.167 2.461-1.528 0-2.8-.483-3.815-1.45-1.016-.967-1.524-2.21-1.524-3.728zm22.252.527v-1.186h2.702v-2.945h1.304v2.945h2.688v1.186h-2.688v3.04h-1.304v-3.04h-2.702zm20.15 4.468v-10.005h4.68c1.05 0 1.872.308 2.468.923.595.615.893 1.382.893 2.3 0 .908-.3 1.67-.9 2.289-.601.617-1.421.926-2.461.926h-2.55v3.567h-2.13zm2.13-5.442h2.25c.429 0 .784-.123 1.065-.37.28-.246.421-.57.421-.97 0-.41-.14-.738-.421-.982-.28-.244-.636-.366-1.066-.366h-2.248v2.688zm11.335 1.436v-5.999h2.16v5.94c0 .718.206 1.29.616 1.718.41.427.99.64 1.74.64s1.327-.213 1.732-.64c.405-.428.608-1 .608-1.718v-5.94h2.175v5.999c0 1.279-.382 2.297-1.146 3.054-.764.757-1.886 1.135-3.366 1.135-1.48 0-2.602-.378-3.369-1.135-.766-.757-1.15-1.775-1.15-3.054zm15.1 4.006v-10.005h5.266c.908 0 1.615.248 2.12.744.505.495.758 1.097.758 1.805 0 .6-.165 1.108-.494 1.523-.33.415-.739.672-1.227.77.542.078.997.35 1.366.816.368.466.553 1.01.553 1.63 0 .79-.253 1.441-.758 1.952-.506.51-1.222.765-2.15.765h-5.435zm2.13-1.875h2.762c.4 0 .713-.1.938-.3.224-.2.336-.481.336-.843 0-.332-.112-.604-.336-.816-.225-.213-.538-.319-.938-.319h-2.761v2.278zm0-4.153h2.674c.361 0 .646-.095.853-.285.208-.19.312-.447.312-.77a.984.984 0 0 0-.315-.754c-.21-.195-.493-.293-.85-.293h-2.673v2.102zm11.811 6.028v-10.005h2.146v8.13h4.227v1.875h-6.373zm11.899 0v-10.005h2.131v10.005h-2.131zm7.724-4.995c0-1.528.506-2.774 1.52-3.735 1.013-.962 2.286-1.443 3.82-1.443 1.87 0 3.258.815 4.167 2.446l-1.832.9a2.735 2.735 0 0 0-.966-1.04 2.484 2.484 0 0 0-1.37-.41c-.908 0-1.66.31-2.256.927-.596.618-.893 1.403-.893 2.355s.296 1.738.89 2.358c.593.62 1.346.93 2.26.93.487 0 .944-.137 1.369-.413.424-.276.747-.624.966-1.044l1.832.886c-.928 1.64-2.317 2.461-4.168 2.461-1.528 0-2.8-.483-3.816-1.45-1.015-.967-1.523-2.21-1.523-3.728z"/></g></g></svg>