<svg xmlns="http://www.w3.org/2000/svg" viewBox="0 0 489 229"><g fill="none" fill-rule="evenodd"><g stroke="#1A8DBA" opacity=".292"><path d="M163.5637 87.1527c0-2.6858-2.1776-4.8633-4.8633-4.8633-2.6867 0-4.8643 2.1775-4.8643 4.8633 0 2.6858 2.1776 4.8633 4.8643 4.8633 2.6857 0 4.8633-2.1775 4.8633-4.8633z"/><path d="M168.7912 87.1527c0-5.573-4.5183-10.0912-10.0912-10.0912-5.5729 0-10.0912 4.5183-10.0912 10.0912 0 5.5729 4.5183 10.0912 10.0912 10.0912 5.573 0 10.0912-4.5183 10.0912-10.0912z"/><path d="M174.0186 87.1527c0-8.46-6.8581-15.319-15.319-15.319-8.46 0-15.3182 6.859-15.3182 15.319s6.8581 15.319 15.3182 15.319c8.4609 0 15.319-6.859 15.319-15.319z"/><path d="M179.2461 87.1527c0-11.3472-9.1988-20.546-20.546-20.546-11.3472 0-20.546 9.1988-20.546 20.546 0 11.3472 9.1988 20.546 20.546 20.546 11.3472 0 20.546-9.1988 20.546-20.546z"/><path d="M184.4736 87.1527c0-14.2343-11.5397-25.774-25.774-25.774-14.2334 0-25.773 11.5397-25.773 25.774 0 14.2343 11.5396 25.774 25.773 25.774 14.2343 0 25.774-11.5397 25.774-25.774z"/><path d="M189.701 87.1527c0-17.1223-13.8785-31.001-31.0008-31.001-17.1223 0-31.001 13.8787-31.001 31.001 0 17.1223 13.8787 31.0009 31.001 31.0009 17.1223 0 31.0009-13.8786 31.0009-31.001z"/><path d="M194.9294 87.1527c0-20.0094-16.2202-36.2297-36.2297-36.2297-20.0085 0-36.2287 16.2203-36.2287 36.2297s16.2202 36.2297 36.2287 36.2297c20.0095 0 36.2297-16.2203 36.2297-36.2297z"/><path d="M200.157 87.1527c0-22.8957-18.561-41.4567-41.4567-41.4567-22.8966 0-41.4576 18.561-41.4576 41.4567 0 22.8957 18.561 41.4566 41.4576 41.4566 22.8956 0 41.4566-18.561 41.4566-41.4566z"/><path d="M205.3844 87.1527c0-25.7828-20.9009-46.6845-46.6846-46.6845-25.7828 0-46.6845 20.9017-46.6845 46.6845 0 25.7828 20.9017 46.6845 46.6845 46.6845 25.7837 0 46.6846-20.9017 46.6846-46.6845z"/><path d="M210.6119 87.1527c0-28.67-23.2416-51.9115-51.9115-51.9115-28.6708 0-51.9124 23.2416-51.9124 51.9115 0 28.67 23.2416 51.9115 51.9124 51.9115 28.6699 0 51.9115-23.2416 51.9115-51.9115z"/></g><g stroke="#1A8DBA" opacity=".295"><path d="M276.4123 114.3376c0-4.2462-3.4422-7.6884-7.6884-7.6884-4.2453 0-7.6875 3.4422-7.6875 7.6884 0 4.2463 3.4422 7.6884 7.6875 7.6884 4.2462 0 7.6884-3.4421 7.6884-7.6884z"/><path d="M281.9624 114.3376c0-7.3109-5.9266-13.2384-13.2384-13.2384-7.3109 0-13.2375 5.9275-13.2375 13.2384s5.9266 13.2384 13.2375 13.2384c7.3118 0 13.2384-5.9275 13.2384-13.2384z"/><path d="M287.5124 114.3376c0-10.3764-8.412-18.7884-18.7884-18.7884-10.3765 0-18.7875 8.412-18.7875 18.7884 0 10.3765 8.411 18.7884 18.7875 18.7884 10.3764 0 18.7884-8.412 18.7884-18.7884z"/><path d="M293.0634 114.3376c0-13.442-10.8964-24.3393-24.3393-24.3393-13.442 0-24.3385 10.8973-24.3385 24.3393 0 13.442 10.8965 24.3394 24.3385 24.3394 13.4429 0 24.3393-10.8974 24.3393-24.3394z"/><path d="M298.6134 114.3376c0-16.5075-13.3818-29.8894-29.8893-29.8894-16.5076 0-29.8894 13.3819-29.8894 29.8894 0 16.5076 13.3818 29.8894 29.8894 29.8894 16.5075 0 29.8893-13.3818 29.8893-29.8894z"/><path d="M304.1635 114.3376c0-19.5721-15.8663-35.4394-35.4394-35.4394-19.5722 0-35.4394 15.8673-35.4394 35.4394 0 19.5722 15.8672 35.4394 35.4394 35.4394 19.573 0 35.4394-15.8672 35.4394-35.4394z"/><path d="M309.7136 114.3376c0-22.6377-18.3517-40.9894-40.9894-40.9894-22.6378 0-40.9894 18.3517-40.9894 40.9894 0 22.6377 18.3516 40.9894 40.9894 40.9894 22.6377 0 40.9894-18.3517 40.9894-40.9894z"/><path d="M315.2645 114.3376c0-25.7033-20.837-46.5403-46.5403-46.5403-25.7033 0-46.5404 20.837-46.5404 46.5403 0 25.7033 20.837 46.5404 46.5404 46.5404 25.7032 0 46.5403-20.8371 46.5403-46.5404z"/><path d="M320.8146 114.3376c0-28.7688-23.3215-52.0903-52.0903-52.0903-28.7689 0-52.0904 23.3215-52.0904 52.0903s23.3215 52.0904 52.0904 52.0904c28.7688 0 52.0903-23.3216 52.0903-52.0904z"/><path d="M326.3646 114.3376c0-31.8334-25.8069-57.6403-57.6404-57.6403-31.8334 0-57.6403 25.8069-57.6403 57.6403 0 31.8335 25.8069 57.6404 57.6403 57.6404 31.8335 0 57.6404-25.807 57.6404-57.6404z"/><path d="M331.9147 114.3376c0-34.899-28.2914-63.1904-63.1904-63.1904s-63.1903 28.2914-63.1903 63.1904 28.2913 63.1904 63.1903 63.1904 63.1904-28.2914 63.1904-63.1904z"/><path d="M337.4647 114.3376c0-37.9645-30.7758-68.7404-68.7404-68.7404-37.9645 0-68.7403 30.7759-68.7403 68.7404 0 37.9646 30.7758 68.7404 68.7403 68.7404 37.9646 0 68.7404-30.7758 68.7404-68.7404z"/><path d="M343.0157 114.3376c0-41.03-33.2612-74.2913-74.2914-74.2913-41.03 0-74.2913 33.2612-74.2913 74.2913 0 41.0301 33.2612 74.2913 74.2913 74.2913 41.0302 0 74.2914-33.2612 74.2914-74.2913z"/><path d="M348.5658 114.3376c0-44.0947-35.7466-79.8413-79.8414-79.8413-44.0947 0-79.8413 35.7466-79.8413 79.8413 0 44.0948 35.7466 79.8414 79.8413 79.8414 44.0948 0 79.8414-35.7466 79.8414-79.8414z"/><path d="M354.1158 114.3376c0-47.1603-38.231-85.3913-85.3914-85.3913-47.1603 0-85.3913 38.231-85.3913 85.3913s38.231 85.3914 85.3913 85.3914 85.3914-38.231 85.3914-85.3914z"/><path d="M359.6659 114.3376c0-50.2258-40.7155-90.9413-90.9414-90.9413-50.2258 0-90.9413 40.7155-90.9413 90.9413 0 50.2259 40.7155 90.9414 90.9413 90.9414 50.2259 0 90.9414-40.7155 90.9414-90.9414z"/><path d="M365.2168 114.3376c0-53.2914-43.2009-96.4923-96.4923-96.4923s-96.4923 43.201-96.4923 96.4923c0 53.2914 43.201 96.4923 96.4923 96.4923 53.2914 0 96.4923-43.2009 96.4923-96.4923z"/><path d="M370.7668 114.3376c0-56.356-45.6862-102.0423-102.0423-102.0423-56.357 0-102.0432 45.6863-102.0432 102.0423 0 56.356 45.6863 102.0423 102.0432 102.0423 56.356 0 102.0423-45.6862 102.0423-102.0423z"/><path d="M376.317 114.3376c0-59.4216-48.1717-107.5923-107.5924-107.5923-59.4216 0-107.5932 48.1707-107.5932 107.5923S209.303 221.93 268.7246 221.93c59.4207 0 107.5923-48.1707 107.5923-107.5923z"/></g><g stroke="#1A8DBA" opacity=".292"><path d="M375.9077 154.0577c0-2.6858-2.1775-4.8633-4.8633-4.8633-2.6866 0-4.8642 2.1775-4.8642 4.8633 0 2.6858 2.1776 4.8633 4.8642 4.8633 2.6858 0 4.8633-2.1775 4.8633-4.8633z"/><path d="M381.1353 154.0577c0-5.573-4.5183-10.0912-10.0912-10.0912-5.573 0-10.0912 4.5183-10.0912 10.0912 0 5.5729 4.5183 10.0912 10.0912 10.0912 5.5729 0 10.0912-4.5183 10.0912-10.0912z"/><path d="M386.3627 154.0577c0-8.46-6.8582-15.319-15.319-15.319-8.4601 0-15.3183 6.859-15.3183 15.319s6.8582 15.319 15.3182 15.319c8.461 0 15.319-6.859 15.319-15.319z"/><path d="M391.5902 154.0577c0-11.3472-9.1989-20.546-20.546-20.546-11.3472 0-20.5461 9.1988-20.5461 20.546 0 11.3472 9.1989 20.546 20.546 20.546 11.3472 0 20.5461-9.1988 20.5461-20.546z"/><path d="M396.8176 154.0577c0-14.2343-11.5396-25.774-25.7739-25.774-14.2334 0-25.773 11.5397-25.773 25.774 0 14.2343 11.5396 25.774 25.773 25.774 14.2343 0 25.774-11.5397 25.774-25.774z"/><path d="M402.0452 154.0577c0-17.1223-13.8787-31.001-31.001-31.001-17.1223 0-31.0009 13.8787-31.0009 31.001 0 17.1223 13.8786 31.0009 31.001 31.0009 17.1222 0 31.0009-13.8786 31.0009-31.001z"/><path d="M407.2735 154.0577c0-20.0094-16.2203-36.2297-36.2297-36.2297-20.0085 0-36.2288 16.2203-36.2288 36.2297s16.2203 36.2297 36.2288 36.2297c20.0094 0 36.2297-16.2203 36.2297-36.2297z"/><path d="M412.501 154.0577c0-22.8957-18.561-41.4567-41.4567-41.4567-22.8965 0-41.4575 18.561-41.4575 41.4567 0 22.8957 18.561 41.4566 41.4575 41.4566 22.8957 0 41.4567-18.561 41.4567-41.4566z"/><path d="M417.7284 154.0577c0-25.7828-20.9008-46.6845-46.6845-46.6845-25.7828 0-46.6845 20.9017-46.6845 46.6845 0 25.7828 20.9017 46.6845 46.6845 46.6845 25.7837 0 46.6845-20.9017 46.6845-46.6845z"/><path d="M422.956 154.0577c0-28.67-23.2417-51.9115-51.9116-51.9115-28.6708 0-51.9124 23.2416-51.9124 51.9115 0 28.67 23.2416 51.9115 51.9124 51.9115 28.67 0 51.9115-23.2416 51.9115-51.9115z"/></g><path fill="#FFF" d="M195.393 107.436h232.295V126H195.393z"/><path fill="#2B7795" d="M200.2058 120.5864l1.172-1.6626c.869.9082 1.9286 1.3648 3.1786 1.3697.5615 0 .9912-.1087 1.289-.326.298-.2173.4469-.4797.4469-.7873 0-.2686-.1416-.4907-.4248-.6665-.2833-.1758-.6373-.304-1.062-.3845-.4249-.0806-.8875-.193-1.388-.337-.5005-.144-.9631-.3112-1.388-.5017-.4247-.1904-.78-.4907-1.0656-.9009-.2857-.4101-.4285-.9106-.4285-1.5014 0-.8594.3455-1.5808 1.0364-2.1643.691-.5835 1.6101-.8753 2.7576-.8753 1.5918 0 2.893.4639 3.9038 1.3916l-1.1865 1.5894c-.7862-.7276-1.748-1.0913-2.8858-1.0913h-.022c-.4394 0-.7849.089-1.0363.2673-.2515.1782-.3772.4187-.3772.7215 0 .2392.1428.4382.4284.5969.2857.1587.6409.2807 1.0657.3662.4248.0854.885.2038 1.3806.3552.4956.1514.9558.3247 1.3806.52.4248.1953.7788.4969 1.062.9046.2833.4077.4249.907.4249 1.4978 0 .9619-.3418 1.7383-1.0254 2.329-.6836.5909-1.6748.8863-2.9737.8863-1.7822 0-3.203-.5322-4.2627-1.5967zm13.2975-3.5815c0-1.5283.5066-2.7734 1.5198-3.7354 1.0131-.9619 2.2863-1.4428 3.8195-1.4428 1.8702 0 3.2593.8154 4.1675 2.4462l-1.831.901c-.2198-.42-.542-.7667-.9668-1.0401-.4248-.2734-.8814-.4102-1.3697-.4102-.9082 0-1.6601.3089-2.2558.9265-.5957.6177-.8936 1.4026-.8936 2.3548 0 .9521.2967 1.7383.89 2.3584.5932.6201 1.3463.9302 2.2594.9302.4883 0 .9449-.138 1.3697-.4139.4248-.2758.747-.6237.9668-1.0437l1.831.8863c-.9277 1.6406-2.3169 2.461-4.1675 2.461-1.5283 0-2.8002-.4835-3.8159-1.4503-1.0156-.9668-1.5234-2.2095-1.5234-3.728zM228.368 122v-10.0049h2.1314V122h-2.1314zm8.1998 0v-10.0049h7.0825v1.875h-4.9511v2.102h4.8413v1.875h-4.8413v2.2779h4.9511V122h-7.0825zm12.8287 0v-10.0049h2.19l4.6362 6.2842v-6.2842h2.1313V122h-2.058l-4.7681-6.5259V122h-2.1314zm14.5426-4.9951c0-1.5283.5066-2.7734 1.5198-3.7354 1.0131-.9619 2.2863-1.4428 3.8195-1.4428 1.8702 0 3.2593.8154 4.1675 2.4462l-1.831.901c-.2198-.42-.542-.7667-.9668-1.0401-.4248-.2734-.8814-.4102-1.3697-.4102-.9082 0-1.6601.3089-2.2558.9265-.5957.6177-.8936 1.4026-.8936 2.3548 0 .9521.2967 1.7383.89 2.3584.5932.6201 1.3464.9302 2.2594.9302.4883 0 .9449-.138 1.3697-.4139.4248-.2758.747-.6237.9668-1.0437l1.831.8863c-.9277 1.6406-2.3169 2.461-4.1675 2.461-1.5283 0-2.8002-.4835-3.8159-1.4503-1.0156-.9668-1.5234-2.2095-1.5234-3.728zM278.804 122v-10.0049h7.0825v1.875h-4.9511v2.102h4.8413v1.875h-4.8413v2.2779h4.9511V122h-7.0825zm20.2155-4.4678v-1.1865h2.7027v-2.9443h1.3037v2.9443h2.688v1.1865h-2.688v3.0396h-1.3037v-3.0396h-2.7027zM319.1691 122v-10.0049h4.6802c1.0303 0 1.8506.3003 2.461.9009.6103.6006.9155 1.3745.9155 2.3218 0 .8203-.2173 1.4856-.6519 1.9958-.4346.5103-.9521.8362-1.5527.9778L327.2844 122h-2.461l-1.9629-3.5522h-1.56V122h-2.1314zm2.1314-5.4272h2.2485c.4297 0 .785-.1233 1.0657-.37.2807-.2465.4211-.5798.4211-.9997 0-.4004-.1404-.7226-.4211-.9668-.2808-.2441-.636-.3662-1.0657-.3662h-2.2485v2.7027zM332.8987 122v-10.0049h7.0825v1.875H335.03v2.102h4.8414v1.875H335.03v2.2779h4.9512V122h-7.0825zm12.1402-1.4136l1.1719-1.6626c.8691.9082 1.9287 1.3648 3.1787 1.3697.5615 0 .9912-.1087 1.289-.326.298-.2173.4469-.4797.4469-.7873 0-.2686-.1416-.4907-.4249-.6665-.2832-.1758-.6372-.304-1.062-.3845-.4248-.0806-.8874-.193-1.3879-.337-.5005-.144-.9631-.3112-1.388-.5017-.4247-.1904-.78-.4907-1.0656-.9009-.2857-.4101-.4285-.9106-.4285-1.5014 0-.8594.3455-1.5808 1.0364-2.1643.691-.5835 1.6101-.8753 2.7576-.8753 1.5918 0 2.893.4639 3.9038 1.3916l-1.1866 1.5894c-.786-.7276-1.748-1.0913-2.8857-1.0913h-.022c-.4394 0-.7849.089-1.0363.2673-.2515.1782-.3772.4187-.3772.7215 0 .2392.1428.4382.4284.5969.2857.1587.6409.2807 1.0657.3662.4248.0854.885.2038 1.3806.3552.4956.1514.9558.3247 1.3806.52.4248.1953.7788.4969 1.062.9046.2832.4077.4248.907.4248 1.4978 0 .9619-.3417 1.7383-1.0253 2.329-.6836.5909-1.6748.8863-2.9737.8863-1.7822 0-3.2031-.5322-4.2627-1.5967zM358.8125 122v-10.0049h7.0825v1.875h-4.9512v2.102h4.8413v1.875h-4.8413v2.2779h4.9512V122h-7.0825zm11.7813 0l3.8525-10.0049h2.6734L380.9722 122h-2.417l-.6299-1.6919h-4.2846l-.63 1.6919h-2.417zm3.6255-3.5669h3.1201l-1.56-4.3066-1.5601 4.3066zM385.986 122v-10.0049h4.6801c1.0303 0 1.8506.3003 2.461.9009.6103.6006.9155 1.3745.9155 2.3218 0 .8203-.2173 1.4856-.6518 1.9958-.4346.5103-.9522.8362-1.5528.9778L394.1012 122h-2.461l-1.9628-3.5522h-1.56V122h-2.1314zm2.1313-5.4272h2.2486c.4296 0 .7849-.1233 1.0656-.37.2808-.2465.4212-.5798.4212-.9997 0-.4004-.1404-.7226-.4212-.9668-.2807-.2441-.636-.3662-1.0656-.3662h-2.2486v2.7027zm11.1222.432c0-1.5282.5066-2.7733 1.5198-3.7353 1.0131-.9619 2.2863-1.4428 3.8195-1.4428 1.8702 0 3.2593.8154 4.1675 2.4462l-1.831.901c-.2198-.42-.542-.7667-.9668-1.0401-.4248-.2734-.8814-.4102-1.3697-.4102-.9082 0-1.6601.3089-2.2558.9265-.5957.6177-.8936 1.4026-.8936 2.3548 0 .9521.2966 1.7383.89 2.3584.5932.6201 1.3463.9302 2.2594.9302.4883 0 .9449-.138 1.3697-.4139.4248-.2758.747-.6237.9668-1.0437l1.831.8863c-.9277 1.6406-2.3169 2.461-4.1675 2.461-1.5283 0-2.8003-.4835-3.8159-1.4503-1.0156-.9668-1.5234-2.2095-1.5234-3.728zM414.1043 122v-10.0049h2.1314v3.9331h4.724v-3.933h2.146V122h-2.146v-4.2114h-4.724V122h-2.1314z"/><path fill="#FFF" d="M6.102 75.656h268.275v18.656H6.102z"/><path fill="#2B7795" d="M9.9653 90.3119v-10.005h2.1314v10.005H9.9653zm8.1998 0v-10.005h2.19l4.6362 6.2843V80.307h2.1313v10.0049h-2.058l-4.7681-6.526v6.526H18.165zm15.0187 0v-10.005h3.9477c1.5723 0 2.8503.4603 3.8342 1.3807.984.9204 1.4759 2.1252 1.4759 3.6145 0 1.5088-.4895 2.721-1.4685 3.6365-.979.9155-2.2547 1.3733-3.827 1.3733h-3.9623zm2.1313-1.875h1.8164c.962 0 1.7249-.3003 2.2888-.901.564-.6005.846-1.3451.846-2.2338 0-.9082-.2722-1.6553-.8167-2.2412-.5444-.586-1.3122-.879-2.3034-.879H35.315v6.255zm12.7262-2.1314V80.307h2.1606v5.94c0 .7177.205 1.2902.6152 1.7174.4102.4273.99.641 1.7395.641.7496 0 1.327-.2137 1.7322-.641.4053-.4272.608-.9997.608-1.7175v-5.94h2.1752v5.9986c0 1.2793-.382 2.2974-1.1462 3.0542-.7642.7568-1.886 1.1353-3.3655 1.1353s-2.6025-.3785-3.3691-1.1353c-.7666-.7568-1.15-1.7749-1.15-3.0542zm14.4107 2.5928l1.1719-1.6626c.8691.9082 1.9287 1.3647 3.1787 1.3696.5615 0 .9912-.1086 1.289-.326.2979-.2172.4468-.4797.4468-.7873 0-.2685-.1416-.4907-.4248-.6665-.2832-.1758-.6372-.304-1.062-.3845-.4248-.0806-.8874-.1929-1.388-.337-.5004-.144-.963-.3112-1.3879-.5016-.4248-.1904-.78-.4907-1.0656-.9009-.2857-.4102-.4285-.9106-.4285-1.5015 0-.8593.3454-1.5808 1.0364-2.1643.6909-.5835 1.61-.8752 2.7575-.8752 1.5918 0 2.8931.4639 3.9038 1.3916l-1.1865 1.5893c-.7861-.7275-1.748-1.0913-2.8857-1.0913h-.022c-.4395 0-.785.0891-1.0364.2674-.2514.1782-.3772.4187-.3772.7214 0 .2393.1429.4382.4285.597.2856.1586.6409.2807 1.0657.3661.4248.0855.885.2039 1.3806.3553.4956.1513.9558.3247 1.3806.52.4248.1953.7788.4968 1.062.9045.2832.4077.4248.907.4248 1.4978 0 .962-.3418 1.7383-1.0254 2.3291-.6836.5909-1.6748.8863-2.9736.8863-1.7822 0-3.2031-.5323-4.2627-1.5967zm12.9605-6.7163v-1.875h7.9834v1.875h-2.915v8.1299h-2.1387v-8.13h-2.9297zm13.4293 8.1299v-10.005h4.6802c1.0303 0 1.8506.3004 2.461.901.6103.6005.9155 1.3745.9155 2.3217 0 .8203-.2173 1.4856-.6519 1.9959-.4346.5102-.9521.8362-1.5527.9778l2.2632 3.8086h-2.461l-1.9629-3.5523h-1.56v3.5523h-2.1314zm2.1314-5.4273h2.2485c.4297 0 .785-.1233 1.0657-.3699.2807-.2465.4211-.5798.4211-.9997 0-.4004-.1404-.7227-.4211-.9668-.2808-.2442-.636-.3662-1.0657-.3662h-2.2485v2.7026zm10.2798-4.5776h2.4317l2.4756 4.0063 2.4682-4.0063h2.417l-3.8232 5.9106v4.0943h-2.1314v-4.0943l-3.8379-5.9106zm22.193 5.537l.0001-1.1864h2.7026v-2.9444h1.3037v2.9444h2.688v1.1865h-2.688v3.0395h-1.3037v-3.0395h-2.7026zm20.1497 4.4679v-10.005h2.1313v10.005h-2.1313zm8.1998 0v-10.005h2.19l4.6362 6.2843V80.307h2.1313v10.0049h-2.0581l-4.768-6.526v6.526h-2.1314zm15.0186 0v-10.005h2.19l4.6362 6.2843V80.307h2.1313v10.0049h-2.058l-4.7681-6.526v6.526h-2.1314zm14.5426-4.9952c0-1.5088.492-2.749 1.4758-3.7207.984-.9716 2.2351-1.4575 3.7537-1.4575 1.5088 0 2.7563.4883 3.7427 1.4649.9863.9765 1.4795 2.2143 1.4795 3.7133 0 1.499-.4932 2.7368-1.4795 3.7134-.9864.9766-2.234 1.4649-3.7427 1.4649-1.5186 0-2.7698-.4859-3.7537-1.4576-.9839-.9716-1.4758-2.2119-1.4758-3.7207zm2.19 0c0 .9522.2795 1.7383.8386 2.3584.559.6202 1.2939.9302 2.2045.9302.9107 0 1.6431-.31 2.1973-.9302.5542-.62.8313-1.4062.8313-2.3584 0-.9521-.277-1.737-.8313-2.3547-.5542-.6177-1.2878-.9265-2.201-.9265-.9179 0-1.654.3088-2.2082.9265-.5542.6177-.8313 1.4026-.8313 2.3547zm12.499-5.0097h2.417l2.7686 7.683 2.7759-7.683h2.417l-3.8526 10.0049h-2.6733l-3.8526-10.005zm13.6417 10.0049l3.8526-10.005h2.6733l3.8526 10.005h-2.417l-.63-1.692h-4.2846l-.6299 1.692h-2.417zm3.6255-3.567h3.1201l-1.56-4.3066-1.56 4.3067zm10.192-4.563v-1.875h7.9834v1.875h-2.915v8.13h-2.1387v-8.13h-2.9297zm13.4293 8.13v-10.005h2.1313v10.005h-2.1313zm7.7237-4.9952c0-1.5088.492-2.749 1.4758-3.7207.984-.9716 2.2351-1.4575 3.7537-1.4575 1.5088 0 2.7564.4883 3.7427 1.4649.9863.9765 1.4795 2.2143 1.4795 3.7133 0 1.499-.4932 2.7368-1.4795 3.7134-.9863.9766-2.2339 1.4649-3.7427 1.4649-1.5186 0-2.7698-.4859-3.7537-1.4576-.9838-.9716-1.4758-2.2119-1.4758-3.7207zm2.19 0c0 .9522.2795 1.7383.8386 2.3584.559.6202 1.294.9302 2.2046.9302.9106 0 1.643-.31 2.1972-.9302.5542-.62.8313-1.4062.8313-2.3584 0-.9521-.277-1.737-.8313-2.3547-.5542-.6177-1.2878-.9265-2.2009-.9265-.918 0-1.654.3088-2.2082.9265-.5542.6177-.8313 1.4026-.8313 2.3547zm13.8467 4.9952v-10.005h2.19l4.6362 6.2843V80.307h2.1313v10.0049h-2.058l-4.7681-6.526v6.526h-2.1314z"/><path fill="#FFF" d="M315.872 139.355h168.563v19.387H315.872z"/><path fill="#2B7795" d="M320.603 149.7469c0-1.5283.5065-2.7734 1.5197-3.7354 1.0132-.9619 2.2864-1.4428 3.8196-1.4428 1.8701 0 3.2593.8154 4.1675 2.4462l-1.831.901c-.2198-.42-.542-.7667-.9669-1.0401-.4248-.2734-.8813-.4102-1.3696-.4102-.9082 0-1.6602.3089-2.2559.9265-.5957.6177-.8935 1.4026-.8935 2.3548 0 .9521.2966 1.7383.8899 2.3584.5932.6201 1.3464.9302 2.2595.9302.4883 0 .9448-.138 1.3696-.4139.4248-.2758.7471-.6237.9668-1.0437l1.831.8863c-.9277 1.6406-2.3168 2.461-4.1674 2.461-1.5283 0-2.8003-.4835-3.816-1.4503-1.0155-.9668-1.5234-2.2095-1.5234-3.728zm14.8648 4.9951v-10.0049h2.1313v10.0049h-2.1313zm7.1524-10.0049h2.417l2.7686 7.6831 2.7758-7.683h2.417l-3.8525 10.0048h-2.6733l-3.8526-10.0049zm15.3922 10.0049v-10.0049h2.1313v10.0049h-2.1313zm7.7237-4.9951c0-1.5283.5066-2.7734 1.5198-3.7354 1.0132-.9619 2.2864-1.4428 3.8196-1.4428 1.87 0 3.2592.8154 4.1674 2.4462l-1.831.901c-.2197-.42-.542-.7667-.9668-1.0401-.4248-.2734-.8813-.4102-1.3696-.4102-.9082 0-1.6602.3089-2.2559.9265-.5957.6177-.8935 1.4026-.8935 2.3548 0 .9521.2966 1.7383.8898 2.3584.5933.6201 1.3465.9302 2.2596.9302.4883 0 .9448-.138 1.3696-.4139.4248-.2758.747-.6237.9668-1.0437l1.831.8863c-.9277 1.6406-2.3168 2.461-4.1674 2.461-1.5284 0-2.8003-.4835-3.816-1.4503-1.0156-.9668-1.5234-2.2095-1.5234-3.728zm22.2517.5273v-1.1865h2.7026v-2.9443h1.3037v2.9443h2.688v1.1865h-2.688v3.0396h-1.3037v-3.0396h-2.7026zm20.1495 4.4678v-10.0049h4.6802c1.0498 0 1.8726.3076 2.4683.9229.5957.6152.8935 1.3818.8935 2.2998 0 .9082-.3003 1.6711-.9008 2.2888-.6006.6177-1.421.9265-2.461.9265h-2.5488v3.5669h-2.1314zm2.1314-5.4419h2.2485c.4297 0 .785-.1233 1.0657-.3699.2808-.2466.4211-.57.4211-.9704 0-.4102-.1403-.7373-.4211-.9815-.2808-.2441-.636-.3662-1.0657-.3662h-2.2485v2.688zm11.3346 1.4356v-5.9986h2.1606v5.94c0 .7177.205 1.2902.6152 1.7175.4102.4272.99.6409 1.7395.6409.7496 0 1.327-.2137 1.7322-.641.4053-.4272.608-.9997.608-1.7174v-5.94h2.1752v5.9986c0 1.2793-.382 2.2973-1.1462 3.0542-.7642.7568-1.886 1.1352-3.3655 1.1352s-2.6025-.3784-3.3691-1.1352c-.7666-.7569-1.15-1.775-1.15-3.0542zm15.0992 4.0063v-10.0049h5.266c.9083 0 1.615.2478 2.1204.7434.5054.4956.7581 1.0974.7581 1.8054 0 .6006-.1648 1.1084-.4944 1.5235-.3296.415-.7385.6714-1.2268.769.542.0782.9973.3504 1.366.8167.3686.4663.553 1.0095.553 1.6296 0 .791-.2527 1.4417-.7581 1.952-.5054.5102-1.222.7653-2.1497.7653h-5.4345zm2.1313-1.875h2.7612c.4004 0 .713-.1001.9375-.3003.2247-.2002.337-.481.337-.8423 0-.332-.1123-.6042-.337-.8166-.2246-.2124-.537-.3186-.9375-.3186h-2.7612v2.2778zm0-4.1528h2.6734c.3613 0 .6457-.0952.8532-.2857.2075-.1904.3113-.4468.3113-.769 0-.3076-.105-.5591-.315-.7544-.2099-.1953-.4931-.293-.8495-.293h-2.6734v2.102zm11.8106 6.0278v-10.0049h2.146v8.1299h4.2261v1.875h-6.372zm11.8986 0v-10.0049h2.1313v10.0049h-2.1313zm7.7237-4.9951c0-1.5283.5066-2.7734 1.5198-3.7354 1.0132-.9619 2.2863-1.4428 3.8196-1.4428 1.87 0 3.2592.8154 4.1674 2.4462l-1.831.901c-.2197-.42-.542-.7667-.9668-1.0401-.4248-.2734-.8814-.4102-1.3696-.4102-.9083 0-1.6602.3089-2.256.9265-.5956.6177-.8935 1.4026-.8935 2.3548 0 .9521.2967 1.7383.89 2.3584.5932.6201 1.3464.9302 2.2595.9302.4882 0 .9448-.138 1.3696-.4139.4248-.2758.747-.6237.9668-1.0437l1.831.8863c-.9277 1.6406-2.3169 2.461-4.1674 2.461-1.5284 0-2.8003-.4835-3.816-1.4503-1.0156-.9668-1.5234-2.2095-1.5234-3.728z"/></g></svg>