<svg xmlns="http://www.w3.org/2000/svg" width="264" height="36" viewBox="0 0 264 36">
  <g fill="#FFF" fill-rule="evenodd">
    <g fill-rule="nonzero" transform="translate(2.089 1.206)">
      <path d="M16.6614259,17.5399199 L16.6614259,15.6847958 L33.1411888,15.6847958 L33.1411888,16.6123579 C33.1411888,25.7136269 25.7629307,33.091657 16.6614259,33.091657 C7.56011498,33.091657 0.181894916,25.7135889 0.181894916,16.6123579 C0.181894916,7.51089301 7.56011694,0.132594994 16.6614259,0.132594994 C21.0907584,0.132594994 25.2441406,1.88941439 28.314255,4.95952881 L27.0024842,6.27129962 C24.2768161,3.54563155 20.5936794,1.98771907 16.6614259,1.98771907 C8.58467795,1.98771907 2.037019,8.53544547 2.037019,16.6123579 C2.037019,24.6890236 8.58466316,31.2365329 16.6614259,31.2365329 C24.4268178,31.2365329 30.7786354,25.1844526 31.2571233,17.5399199 L16.6614259,17.5399199 Z"/>
      <path d="M16.6614509,17.5398058 L16.6614509,15.6846817 L28.3572615,15.6846817 L28.3572615,16.6122437 C28.3572615,23.0715518 23.120759,28.3080543 16.6614509,28.3080543 C10.2021803,28.3080543 4.96586857,23.0715893 4.96586857,16.6122437 C4.96586857,10.1529357 10.2021428,4.9166614 16.6614509,4.9166614 C19.8047477,4.9166614 22.752849,6.16354827 24.9315869,8.34203096 L23.6198929,9.65387861 C21.7855968,7.81979743 19.3077094,6.77178549 16.6614509,6.77178549 C11.2266996,6.77178549 6.82099265,11.1774924 6.82099265,16.6122437 C6.82099265,22.0470447 11.2267492,26.4529303 16.6614509,26.4529303 C21.7833919,26.4529303 25.9915405,22.5395875 26.4589927,17.5398058 L16.6614509,17.5398058 Z"/>
      <path d="M20.5324266,12.2900472 L19.2099087,13.5909822 C18.4035974,12.7712939 17.308936,12.3023716 16.1375789,12.3023716 C13.7572025,12.3023716 11.8276622,14.2319119 11.8276622,16.6122883 C11.8276622,18.9926648 13.7572025,20.9222051 16.1375789,20.9222051 C17.3091072,20.9222051 18.4036956,20.4533588 19.2098389,19.6336654 L20.5324964,20.9344584 C19.3811992,22.1051073 17.8118013,22.7773291 16.1375789,22.7773291 C12.7326457,22.7773291 9.97253811,20.0172215 9.97253811,16.6122883 C9.97253811,13.2073551 12.7326457,10.4472475 16.1375789,10.4472475 C17.8116223,10.4472475 19.3810118,11.1195302 20.5324266,12.2900472 Z"/>
    </g>
    <path d="M0.68359375,7.33984375 C0.68359375,5.27603135 1.36555308,3.60938135 2.72949219,2.33984375 C4.0934313,1.07030615 5.78449512,0.435546875 7.80273438,0.435546875 C10.218111,0.435546875 12.050775,1.43163066 13.3007812,3.42382812 L10.9570312,4.703125 C10.6249983,4.19530996 10.1822944,3.77864746 9.62890625,3.453125 C9.07551807,3.12760254 8.4668002,2.96484375 7.80273438,2.96484375 C6.59179082,2.96484375 5.58919668,3.37662349 4.79492188,4.20019531 C4.00064707,5.02376714 3.60351562,6.07030615 3.60351562,7.33984375 C3.60351562,8.60938135 3.99901948,9.65754795 4.79003906,10.484375 C5.58105864,11.3112021 6.58528037,11.7246094 7.80273438,11.7246094 C8.34961211,11.7246094 8.88183335,11.6236989 9.39941406,11.421875 C9.91699478,11.2200511 10.3222642,10.9791681 10.6152344,10.6992188 L10.6152344,9.09765625 L7.09960938,9.09765625 L7.09960938,6.6171875 L13.4570312,6.6171875 L13.4570312,11.7441406 C11.9661384,13.4108156 10.0813916,14.2441406 7.80273438,14.2441406 C5.79100557,14.2441406 4.10156934,13.6061262 2.734375,12.3300781 C1.36718066,11.0540301 0.68359375,9.39063525 0.68359375,7.33984375 Z M18.9774468,7.33984375 C18.9774468,5.32811494 19.6333647,3.67448564 20.9452202,2.37890625 C22.2570757,1.08332686 23.9253533,0.435546875 25.950103,0.435546875 C27.9618319,0.435546875 29.6252267,1.08658203 30.9403374,2.38867188 C32.2554482,3.69076172 32.9129937,5.34113584 32.9129937,7.33984375 C32.9129937,9.33855166 32.2554482,10.9889258 30.9403374,12.2910156 C29.6252267,13.5931055 27.9618319,14.2441406 25.950103,14.2441406 C23.9253533,14.2441406 22.2570757,13.5963606 20.9452202,12.3007812 C19.6333647,11.0052019 18.9774468,9.35157256 18.9774468,7.33984375 Z M21.8973687,7.33984375 C21.8973687,8.60938135 22.2700863,9.65754795 23.0155327,10.484375 C23.7609792,11.3112021 24.7407871,11.7246094 25.9549859,11.7246094 C27.1691846,11.7246094 28.1457374,11.3112021 28.8846734,10.484375 C29.6236093,9.65754795 29.9930718,8.60938135 29.9930718,7.33984375 C29.9930718,6.07030615 29.6236093,5.02376714 28.8846734,4.20019531 C28.1457374,3.37662349 27.167557,2.96484375 25.950103,2.96484375 C24.7261386,2.96484375 23.7447031,3.37662349 23.0057671,4.20019531 C22.2668311,5.02376714 21.8973687,6.07030615 21.8973687,7.33984375 Z M37.5056748,3.16015625 L37.5056748,0.66015625 L48.1502061,0.66015625 L48.1502061,3.16015625 L44.2634873,3.16015625 L44.2634873,14 L41.4119248,14 L41.4119248,3.16015625 L37.5056748,3.16015625 Z M53.035856,3.16015625 L53.035856,0.66015625 L63.6803873,0.66015625 L63.6803873,3.16015625 L59.7936685,3.16015625 L59.7936685,14 L56.942106,14 L56.942106,3.16015625 L53.035856,3.16015625 Z M69.2691622,14 L69.2691622,0.66015625 L72.1304903,0.66015625 L72.1304903,11.5 L77.7652559,11.5 L77.7652559,14 L69.2691622,14 Z M83.5786402,14 L83.5786402,0.66015625 L86.4204371,0.66015625 L86.4204371,14 L83.5786402,14 Z M92.9564776,14 L92.9564776,0.66015625 L102.399837,0.66015625 L102.399837,3.16015625 L95.7982745,3.16015625 L95.7982745,5.96289062 L102.253353,5.96289062 L102.253353,8.46289062 L95.7982745,8.46289062 L95.7982745,11.5 L102.399837,11.5 L102.399837,14 L92.9564776,14 Z M108.50619,14 L108.50619,0.66015625 L115.527674,0.66015625 C116.738618,0.66015625 117.680991,0.990556592 118.354823,1.65136719 C119.028654,2.31217778 119.365565,3.11457861 119.365565,4.05859375 C119.365565,4.859379 119.145841,5.53645557 118.706385,6.08984375 C118.26693,6.64323193 117.721688,6.98502539 117.070643,7.11523438 C117.793303,7.21940156 118.400393,7.58235366 118.891932,8.20410156 C119.383471,8.82584946 119.629237,9.55012607 119.629237,10.3769531 C119.629237,11.4316459 119.292326,12.2991502 118.618495,12.9794922 C117.944663,13.6598341 116.989269,14 115.752284,14 L108.50619,14 Z M111.347987,11.5 L115.029628,11.5 C115.563484,11.5 115.980147,11.3665378 116.279628,11.0996094 C116.579108,10.832681 116.728846,10.4583357 116.728846,9.9765625 C116.728846,9.53385195 116.579108,9.17089985 116.279628,8.88769531 C115.980147,8.60449077 115.563484,8.46289062 115.029628,8.46289062 L111.347987,8.46289062 L111.347987,11.5 Z M111.347987,5.96289062 L114.91244,5.96289062 C115.394213,5.96289062 115.773441,5.83593877 116.050135,5.58203125 C116.326829,5.32812373 116.465174,4.98633027 116.465174,4.55664062 C116.465174,4.14648232 116.325202,3.81119922 116.045253,3.55078125 C115.765303,3.29036328 115.387703,3.16015625 114.91244,3.16015625 L111.347987,3.16015625 L111.347987,5.96289062 Z M134.05874,7.33984375 C134.05874,5.27603135 134.740699,3.60938135 136.104638,2.33984375 C137.468577,1.07030615 139.159641,0.435546875 141.177881,0.435546875 C143.593257,0.435546875 145.425921,1.43163066 146.675927,3.42382812 L144.332177,4.703125 C144.000144,4.19530996 143.557441,3.77864746 143.004052,3.453125 C142.450664,3.12760254 141.841946,2.96484375 141.177881,2.96484375 C139.966937,2.96484375 138.964343,3.37662349 138.170068,4.20019531 C137.375793,5.02376714 136.978662,6.07030615 136.978662,7.33984375 C136.978662,8.60938135 137.374166,9.65754795 138.165185,10.484375 C138.956205,11.3112021 139.960427,11.7246094 141.177881,11.7246094 C141.724758,11.7246094 142.25698,11.6236989 142.77456,11.421875 C143.292141,11.2200511 143.69741,10.9791681 143.990381,10.6992188 L143.990381,9.09765625 L140.474756,9.09765625 L140.474756,6.6171875 L146.832177,6.6171875 L146.832177,11.7441406 C145.341285,13.4108156 143.456538,14.2441406 141.177881,14.2441406 C139.166152,14.2441406 137.476715,13.6061262 136.109521,12.3300781 C134.742327,11.0540301 134.05874,9.39063525 134.05874,7.33984375 Z M152.987359,14 L152.987359,0.66015625 L159.227593,0.66015625 C160.601298,0.66015625 161.695037,1.06054287 162.508843,1.86132812 C163.322649,2.66211338 163.729546,3.6940041 163.729546,4.95703125 C163.729546,6.05078672 163.439835,6.93782212 162.860405,7.61816406 C162.280975,8.29850601 161.590878,8.73307197 160.790093,8.921875 L163.807671,14 L160.526421,14 L157.909234,9.26367188 L155.829155,9.26367188 L155.829155,14 L152.987359,14 Z M155.829155,6.76367188 L158.827202,6.76367188 C159.400122,6.76367188 159.87375,6.5992855 160.248101,6.27050781 C160.622452,5.94173013 160.809624,5.49739863 160.809624,4.9375 C160.809624,4.40364316 160.622452,3.97395996 160.248101,3.6484375 C159.87375,3.32291504 159.400122,3.16015625 158.827202,3.16015625 L155.829155,3.16015625 L155.829155,6.76367188 Z M169.103477,7.33984375 C169.103477,5.32811494 169.759395,3.67448564 171.071251,2.37890625 C172.383106,1.08332686 174.051384,0.435546875 176.076133,0.435546875 C178.087862,0.435546875 179.751257,1.08658203 181.066368,2.38867188 C182.381479,3.69076172 183.039024,5.34113584 183.039024,7.33984375 C183.039024,9.33855166 182.381479,10.9889258 181.066368,12.2910156 C179.751257,13.5931055 178.087862,14.2441406 176.076133,14.2441406 C174.051384,14.2441406 172.383106,13.5963606 171.071251,12.3007812 C169.759395,11.0052019 169.103477,9.35157256 169.103477,7.33984375 Z M172.023399,7.33984375 C172.023399,8.60938135 172.396117,9.65754795 173.141563,10.484375 C173.88701,11.3112021 174.866818,11.7246094 176.081016,11.7246094 C177.295215,11.7246094 178.271768,11.3112021 179.010704,10.484375 C179.74964,9.65754795 180.119102,8.60938135 180.119102,7.33984375 C180.119102,6.07030615 179.74964,5.02376714 179.010704,4.20019531 C178.271768,3.37662349 177.293587,2.96484375 176.076133,2.96484375 C174.852169,2.96484375 173.870734,3.37662349 173.131798,4.20019531 C172.392862,5.02376714 172.023399,6.07030615 172.023399,7.33984375 Z M188.930533,8.65820312 L188.930533,0.66015625 L191.811393,0.66015625 L191.811393,8.58007812 C191.811393,9.53711416 192.084828,10.3004529 192.631705,10.8701172 C193.178583,11.4397815 193.951687,11.7246094 194.951041,11.7246094 C195.950395,11.7246094 196.720244,11.4397815 197.260612,10.8701172 C197.800979,10.3004529 198.071158,9.53711416 198.071158,8.58007812 L198.071158,0.66015625 L200.971549,0.66015625 L200.971549,8.65820312 C200.971549,10.3639408 200.462114,11.7213491 199.443229,12.7304688 C198.424343,13.7395884 196.92859,14.2441406 194.955924,14.2441406 C192.983258,14.2441406 191.485877,13.7395884 190.463737,12.7304688 C189.441596,11.7213491 188.930533,10.3639408 188.930533,8.65820312 Z M207.50759,14 L207.50759,0.66015625 L213.747824,0.66015625 C215.147571,0.66015625 216.244565,1.0703084 217.03884,1.890625 C217.833114,2.7109416 218.230246,3.7330668 218.230246,4.95703125 C218.230246,6.1679748 217.829859,7.18521724 217.029074,8.00878906 C216.228289,8.83236089 215.13455,9.24414062 213.747824,9.24414062 L210.349386,9.24414062 L210.349386,14 L207.50759,14 Z M210.349386,6.74414062 L213.347433,6.74414062 C213.920353,6.74414062 214.393981,6.57975425 214.768332,6.25097656 C215.142683,5.92219888 215.329855,5.49088809 215.329855,4.95703125 C215.329855,4.41015352 215.142683,3.97395996 214.768332,3.6484375 C214.393981,3.32291504 213.920353,3.16015625 213.347433,3.16015625 L210.349386,3.16015625 L210.349386,6.74414062 Z" transform="translate(44 16)"/>
  </g>
</svg>
